<svg width="19" height="18" viewBox="0 0 19 18" fill="none" xmlns="http://www.w3.org/2000/svg">
<path d="M1.89991 8.81323L1.6022 9.09738C1.22082 9.46142 0.619489 9.44406 0.259295 9.05865C-0.100899 8.67323 -0.0837503 8.06553 0.297782 7.70152L7.54319 0.786281C8.64153 -0.262094 10.3585 -0.262094 11.4568 0.786281L18.7022 7.70152C19.0837 8.06556 19.1009 8.67324 18.7407 9.05865C18.3805 9.44405 17.7792 9.46142 17.3978 9.09738L17.1001 8.81323V16.0798C17.1001 17.1403 16.2494 18 15.2 18H11.875C11.6128 18 11.4002 17.7851 11.4002 17.5199V12.2398C11.4002 11.1794 10.5494 10.3196 9.50013 10.3196C8.45081 10.3196 7.6001 11.1794 7.6001 12.2398V17.5199C7.6001 17.7851 7.38747 18 7.12522 18H3.80021C2.7509 18 1.90018 17.1403 1.90018 16.0798L1.89991 8.81323Z" fill="url(#paint0_linear_130_53)"/>
<defs>
<linearGradient id="paint0_linear_130_53" x1="0.000981203" y1="9.00389" x2="19.0015" y2="9.00389" gradientUnits="userSpaceOnUse">
<stop stop-color="#703FEC"/>
<stop offset="1" stop-color="#00B9E4"/>
</linearGradient>
</defs>
</svg>
