<svg width="20" height="15" viewBox="0 0 20 15" fill="none" xmlns="http://www.w3.org/2000/svg">
<path d="M11.8075 8.22588V0.852548C11.8075 0.743921 11.7643 0.639686 11.6875 0.562881C11.6107 0.486075 11.5064 0.442871 11.3978 0.442871H0.747567C0.521265 0.442871 0.337891 0.626383 0.337891 0.852548V8.22588C0.337891 8.33451 0.381095 8.43874 0.4579 8.51555C0.534706 8.59235 0.63894 8.63556 0.747567 8.63556H3.61488V10.6837C3.61653 10.8397 3.70499 10.982 3.84434 11.0523C3.90085 11.0785 3.96229 11.0925 4.02456 11.0933C4.11343 11.0953 4.20039 11.0662 4.27034 11.0113L7.4409 8.63556H11.3979C11.5066 8.63556 11.6108 8.59236 11.6876 8.51555C11.7644 8.43875 11.8076 8.33451 11.8076 8.22588L11.8075 8.22588Z" fill="url(#paint0_linear_130_85)"/>
<path d="M19.5912 3.72022H12.6276V8.63578C12.6276 8.85303 12.5413 9.06136 12.3876 9.21497C12.234 9.36872 12.0256 9.45499 11.8084 9.45499H8.53125V11.5031C8.53125 11.6117 8.57445 11.7159 8.65126 11.7928C8.72807 11.8696 8.8323 11.9128 8.94093 11.9128H12.8979L16.0685 14.2887C16.1385 14.3435 16.2254 14.3725 16.3143 14.3705C16.3766 14.3697 16.438 14.3557 16.4945 14.3295C16.6339 14.2592 16.7223 14.1169 16.724 13.9609V11.9128H19.5914H19.5913C19.6999 11.9128 19.8042 11.8696 19.881 11.7928C19.9578 11.7159 20.001 11.6117 20.001 11.5031V4.12975C20.001 4.02113 19.9578 3.91703 19.881 3.84009C19.8042 3.76328 19.6999 3.72021 19.5913 3.72021L19.5912 3.72022Z" fill="url(#paint1_linear_130_85)"/>
<defs>
<linearGradient id="paint0_linear_130_85" x1="0.338483" y1="5.77045" x2="11.8085" y2="5.77045" gradientUnits="userSpaceOnUse">
<stop stop-color="#703FEC"/>
<stop offset="1" stop-color="#00B9E4"/>
</linearGradient>
<linearGradient id="paint1_linear_130_85" x1="8.53184" y1="9.04772" x2="20.0019" y2="9.04772" gradientUnits="userSpaceOnUse">
<stop stop-color="#703FEC"/>
<stop offset="1" stop-color="#00B9E4"/>
</linearGradient>
</defs>
</svg>
