<svg width="19" height="19" viewBox="0 0 19 19" fill="none" xmlns="http://www.w3.org/2000/svg">
<path d="M17.0348 0.661743H2.62672C1.54183 0.661743 0.661621 1.54195 0.661621 2.62685V17.0349C0.661621 18.1198 1.54183 19 2.62672 19H17.0348C18.1197 19 18.9999 18.1198 18.9999 17.0349V2.62685C18.9999 1.54195 18.1197 0.661743 17.0348 0.661743V0.661743ZM17.6892 13.7034L14.9113 8.60723C14.6816 8.18442 14.2395 7.92389 13.7609 7.92389C13.2802 7.92389 12.8401 8.18444 12.6104 8.60723L11.7591 10.1727L9.00835 5.28509C8.77675 4.87385 8.33845 4.61722 7.86558 4.61722C7.39271 4.61722 6.95641 4.874 6.72467 5.28509L1.9722 13.7342V2.62705C1.9722 2.26418 2.26371 1.97266 2.62659 1.97266H17.0346C17.3975 1.97266 17.689 2.26418 17.689 2.62705L17.6892 13.7034Z" fill="url(#paint0_linear_130_178)"/>
<path d="M14.0873 2.62686C12.8229 2.62686 11.7959 3.65385 11.7959 4.91823C11.7959 5.52633 12.0372 6.10923 12.4677 6.5397C12.8963 6.97017 13.4792 7.21146 14.0872 7.21146C15.3535 7.21146 16.3805 6.18448 16.3805 4.91823C16.3805 3.65385 15.3535 2.62686 14.0872 2.62686H14.0873Z" fill="url(#paint1_linear_130_178)"/>
<defs>
<linearGradient id="paint0_linear_130_178" x1="0.662568" y1="9.83483" x2="19.0013" y2="9.83483" gradientUnits="userSpaceOnUse">
<stop stop-color="#703FEC"/>
<stop offset="1" stop-color="#00B9E4"/>
</linearGradient>
<linearGradient id="paint1_linear_130_178" x1="11.7961" y1="4.92015" x2="16.3808" y2="4.92015" gradientUnits="userSpaceOnUse">
<stop stop-color="#703FEC"/>
<stop offset="1" stop-color="#00B9E4"/>
</linearGradient>
</defs>
</svg>
