<svg width="19" height="20" viewBox="0 0 19 20" fill="none" xmlns="http://www.w3.org/2000/svg">
<path d="M18.981 1.77214V5.45599C18.981 5.98188 18.5526 6.40716 18.0298 6.40716C17.5035 6.40716 17.0786 5.98211 17.0786 5.45599V4.06743L13.4043 7.74177C13.0301 8.11595 12.4312 8.11595 12.0568 7.74177L8.522 4.20692L2.41565 10.3161C2.22856 10.5032 1.98441 10.5952 1.74025 10.5952C1.4992 10.5952 1.25527 10.5032 1.06819 10.3161C0.697323 9.9448 0.697323 9.34286 1.06819 8.97198L7.84994 2.19023C8.2208 1.81937 8.82318 1.81937 9.19406 2.19023L12.7291 5.72525L15.7347 2.72319H14.3428C13.82 2.72319 13.3916 2.29837 13.3916 1.77203C13.3916 1.24569 13.82 0.820862 14.3428 0.820862H18.03C18.0965 0.820862 18.1596 0.827275 18.2202 0.83988C18.2772 0.852486 18.3343 0.868409 18.3882 0.890523C18.4168 0.903129 18.4453 0.915955 18.4707 0.928561C18.6928 1.04577 18.8639 1.24569 18.9367 1.48961C18.9462 1.51836 18.9559 1.54977 18.9621 1.57829C18.9621 1.58493 18.9621 1.5878 18.9652 1.5909C18.9747 1.65149 18.9811 1.71164 18.9811 1.77202L18.981 1.77214Z" fill="url(#paint0_linear_130_267)"/>
<path d="M5.5993 13.5563V18.8919C5.5993 19.4182 5.17138 19.843 4.64814 19.843H1.86767C1.34134 19.843 0.916504 19.4182 0.916504 18.8919V13.5563C0.916504 13.0333 1.34133 12.6051 1.86767 12.6051H4.64814C5.17115 12.6051 5.5993 13.033 5.5993 13.5563Z" fill="url(#paint1_linear_130_267)"/>
<path d="M12.2985 9.91659V18.8921C12.2985 19.4184 11.8735 19.8433 11.3474 19.8433H8.56689C8.04387 19.8433 7.61572 19.4185 7.61572 18.8921V9.91659C7.61572 9.39026 8.04364 8.96542 8.56689 8.96542H11.3476C11.8737 8.96542 12.2985 9.39025 12.2985 9.91659V9.91659Z" fill="url(#paint2_linear_130_267)"/>
<path d="M19.0002 15.4619V18.8921C19.0002 19.4184 18.5754 19.8433 18.049 19.8433H15.2685C14.7422 19.8433 14.3174 19.4184 14.3174 18.8921L14.3176 15.4619C14.3176 14.9355 14.7424 14.5107 15.2688 14.5107H18.0492C18.5753 14.5107 19.0002 14.9355 19.0002 15.4619H19.0002Z" fill="url(#paint3_linear_130_267)"/>
<defs>
<linearGradient id="paint0_linear_130_267" x1="0.790978" y1="5.71014" x2="18.9825" y2="5.71014" gradientUnits="userSpaceOnUse">
<stop stop-color="#703FEC"/>
<stop offset="1" stop-color="#00B9E4"/>
</linearGradient>
<linearGradient id="paint1_linear_130_267" x1="0.916746" y1="16.2256" x2="5.59967" y2="16.2256" gradientUnits="userSpaceOnUse">
<stop stop-color="#703FEC"/>
<stop offset="1" stop-color="#00B9E4"/>
</linearGradient>
<linearGradient id="paint2_linear_130_267" x1="7.61596" y1="14.4067" x2="12.2989" y2="14.4067" gradientUnits="userSpaceOnUse">
<stop stop-color="#703FEC"/>
<stop offset="1" stop-color="#00B9E4"/>
</linearGradient>
<linearGradient id="paint3_linear_130_267" x1="14.3176" y1="17.1781" x2="19.0005" y2="17.1781" gradientUnits="userSpaceOnUse">
<stop stop-color="#703FEC"/>
<stop offset="1" stop-color="#00B9E4"/>
</linearGradient>
</defs>
</svg>
