<svg width="20" height="18" viewBox="0 0 20 18" fill="none" xmlns="http://www.w3.org/2000/svg">
<path d="M18.4425 2.12799C17.445 1.13046 16.0921 0.570131 14.6816 0.570131C13.2709 0.570131 11.9179 1.13046 10.9206 2.12799L10.1684 2.88005L9.41611 2.1278V2.12799C8.07247 0.784348 6.11404 0.259496 4.27841 0.751292C2.44279 1.24309 1.00925 2.67681 0.517266 4.51244C0.0254701 6.34787 0.550336 8.3063 1.89396 9.65013L10.1679 17.9241L18.4419 9.65013C19.4394 8.65261 19.9998 7.29988 19.9998 5.88918C19.9998 4.47848 19.4394 3.12571 18.4419 2.12823L18.4425 2.12799Z" fill="url(#paint0_linear_130_365)"/>
<defs>
<linearGradient id="paint0_linear_130_365" x1="0.336953" y1="9.25078" x2="20.0013" y2="9.25078" gradientUnits="userSpaceOnUse">
<stop stop-color="#703FEC"/>
<stop offset="1" stop-color="#00B9E4"/>
</linearGradient>
</defs>
</svg>
