<svg width="21" height="13" viewBox="0 0 21 13" fill="none" xmlns="http://www.w3.org/2000/svg">
<path d="M7.81355 3.1069C7.81355 2.39477 8.09639 1.71156 8.60008 1.2079C9.10377 0.704214 9.78673 0.421367 10.4991 0.421367C11.2114 0.421367 11.8944 0.704202 12.3981 1.2079C12.9018 1.71158 13.1846 2.39477 13.1846 3.1069C13.1846 3.81926 12.9018 4.50224 12.3981 5.00591C11.8944 5.50959 11.2114 5.79244 10.4991 5.79244C9.78673 5.79244 9.10375 5.5096 8.60008 5.00591C8.0964 4.50222 7.81355 3.81926 7.81355 3.1069ZM3.93997 4.42325L3.93974 4.42348C4.5263 4.42348 5.089 4.19047 5.50357 3.77565C5.91841 3.36081 6.1514 2.79835 6.1514 2.21182C6.1514 1.62525 5.91839 1.06255 5.50357 0.647982C5.08896 0.233142 4.52627 0.000151023 3.93974 0.000151023C3.3532 0.000151023 2.79071 0.233165 2.3759 0.647982C1.96129 1.06259 1.72825 1.62528 1.72825 2.21182C1.72366 2.80111 1.95484 3.36796 2.37014 3.78623C2.78545 4.2045 3.35044 4.43982 3.93974 4.43982L3.93997 4.42325ZM17.0582 4.42325V4.42348C17.6455 4.42256 18.2084 4.18794 18.6225 3.77171C19.0369 3.35527 19.2685 2.79118 19.2665 2.20394C19.2644 1.6167 19.0289 1.05426 18.6117 0.640753C18.1943 0.227288 17.63 -0.00319885 17.0426 3.35454e-05C16.4553 0.00324755 15.8933 0.239936 15.4808 0.657973C15.0683 1.0758 14.8387 1.6408 14.8433 2.22804C14.8433 2.81529 15.0765 3.37842 15.492 3.79328C15.9076 4.20812 16.4709 4.4407 17.0581 4.43976L17.0582 4.42325ZM7.26992 6.32895C6.74374 5.60784 5.90509 5.1811 5.0123 5.1804H2.86646C2.12471 5.18131 1.4137 5.47632 0.889113 6.00066C0.364765 6.52524 0.069788 7.2362 0.0688477 7.97777V9.39309C0.0706842 9.66445 0.291307 9.88346 0.562658 9.88346H5.17018V9.50168C5.1688 8.82488 5.36738 8.16259 5.74089 7.59827C6.11441 7.03375 6.64632 6.59229 7.26988 6.32894L7.26992 6.32895ZM18.1308 5.1804H15.9849C15.0921 5.18108 14.2535 5.60786 13.7273 6.32895C14.3515 6.59159 14.8842 7.03303 15.2584 7.59758C15.6323 8.16188 15.8314 8.82442 15.8302 9.50164V9.8933H20.438C20.7093 9.8933 20.9297 9.67428 20.9316 9.40292V7.9876C20.9334 7.2438 20.6391 6.52956 20.1136 6.00291C19.5881 5.47627 18.8748 5.18035 18.1308 5.18035L18.1308 5.1804ZM12.4041 6.69445L8.59291 6.69422C7.85117 6.69422 7.13951 6.98899 6.61492 7.51355C6.09034 8.03835 5.7956 8.74979 5.7956 9.49177V11.914C5.79743 12.1854 6.01782 12.4044 6.28918 12.4044H14.7081C14.9795 12.4044 15.1999 12.1854 15.2017 11.914V9.50165C15.2044 8.75808 14.9108 8.04383 14.3858 7.51719C13.861 6.99032 13.1479 6.69416 12.4043 6.69416L12.4041 6.69445Z" fill="url(#paint0_linear_130_450)"/>
<defs>
<linearGradient id="paint0_linear_130_450" x1="0.0699251" y1="6.20487" x2="20.9332" y2="6.20487" gradientUnits="userSpaceOnUse">
<stop stop-color="#703FEC"/>
<stop offset="1" stop-color="#00B9E4"/>
</linearGradient>
</defs>
</svg>
