<svg width="21" height="12" viewBox="0 0 21 12" fill="none" xmlns="http://www.w3.org/2000/svg">
<path fill-rule="evenodd" clip-rule="evenodd" d="M21.0006 2.24998V10.1901C21.0006 10.585 20.8438 10.9637 20.5645 11.2427C20.2855 11.522 19.9068 11.6788 19.5119 11.6788H1.64695C1.252 11.6788 0.873311 11.522 0.594363 11.2427C0.315057 10.9637 0.158203 10.585 0.158203 10.1901V2.24998C0.158203 1.85502 0.315053 1.47634 0.594363 1.19756C0.873337 0.918089 1.25201 0.76123 1.64695 0.76123H19.5119C19.9068 0.76123 20.2855 0.91808 20.5645 1.19756C20.8438 1.47637 21.0006 1.85503 21.0006 2.24998ZM16.7186 1.76711C15.1787 1.75631 4.44026 1.75382 4.44026 1.75382C3.81452 1.75382 3.25526 2.14578 3.04139 2.7338C3.0399 2.73928 3.0379 2.74426 3.03641 2.74925C2.89734 3.17411 2.56188 3.50706 2.14065 3.65496C2.13866 3.65596 2.13716 3.65645 2.13517 3.65695C1.55396 3.8683 1.16599 4.42008 1.164 5.03838C1.15054 5.93562 1.15054 6.49837 1.15054 7.39659C1.15054 8.02234 1.54266 8.58159 2.13068 8.79546C2.13617 8.79696 2.14115 8.79895 2.14614 8.80045C2.57083 8.93952 2.90378 9.27497 3.05168 9.6962C3.05267 9.6982 3.05317 9.69969 3.05367 9.70169C3.26568 10.2847 3.81999 10.6729 4.44024 10.6729C5.88479 10.6833 16.7186 10.6863 16.7186 10.6863C17.3443 10.6863 17.9036 10.2942 18.1174 9.70617C18.1189 9.70069 18.1209 9.6957 18.1224 9.69072C18.2615 9.26603 18.5969 8.93307 19.0182 8.78518C19.0202 8.78418 19.0217 8.78368 19.0237 8.78318C19.6049 8.57167 19.9928 8.01988 19.9948 7.40163C20.0083 6.50438 20.0083 5.94164 20.0083 5.04341C20.0083 4.41767 19.6162 3.85842 19.0281 3.64455C19.0227 3.64305 19.0177 3.64106 19.0127 3.63956C18.588 3.50066 18.255 3.16521 18.1071 2.74381C18.1061 2.74181 18.1057 2.74032 18.1052 2.73832C17.8931 2.15529 17.3388 1.76715 16.7186 1.76715V1.76711ZM16.7151 2.75972C14.7882 2.74626 4.44102 2.74626 4.44102 2.74626C4.23399 2.74626 4.0489 2.87487 3.97696 3.06678C3.74085 3.77891 3.18159 4.34021 2.46946 4.59176C2.28137 4.66238 2.15675 4.84249 2.15675 5.04336V5.05084C2.14346 5.94409 2.14346 6.50334 2.14346 7.39612C2.14346 7.60315 2.2719 7.78825 2.46397 7.86019C3.1761 8.09629 3.7374 8.65556 3.98896 9.36769C4.05941 9.55578 4.23952 9.68039 4.44056 9.68039H4.44455C6.27473 9.69369 16.7182 9.69369 16.7182 9.69369C16.9252 9.69369 17.1103 9.56525 17.1822 9.37317C17.4184 8.66104 17.9776 8.09974 18.6898 7.84819C18.8778 7.77774 19.0025 7.59763 19.0025 7.39659V7.38911C19.0158 6.49586 19.0158 5.93661 19.0158 5.04383C19.0158 4.83696 18.8873 4.65187 18.6952 4.57993C17.9831 4.34366 17.4218 3.78439 17.1703 3.07226C17.0998 2.88417 16.9197 2.75972 16.7187 2.75972H16.7152H16.7151ZM10.5793 3.73872C9.20973 3.73872 8.09815 4.8503 8.09815 6.22007C8.09815 7.58968 9.20973 8.70126 10.5793 8.70126C11.9489 8.70126 13.0605 7.58968 13.0605 6.22007C13.0605 4.8503 11.9489 3.73872 10.5793 3.73872ZM10.5793 4.73133C11.4011 4.73133 12.0681 5.39829 12.0681 6.22007C12.0681 7.04186 11.4011 7.70882 10.5793 7.70882C9.75754 7.70882 9.09059 7.04186 9.09059 6.22007C9.09059 5.39829 9.75754 4.73133 10.5793 4.73133Z" fill="#B0B2BB"/>
</svg>
