<svg width="19" height="19" viewBox="0 0 19 19" fill="none" xmlns="http://www.w3.org/2000/svg">
<path d="M18.9998 16.141C19.003 16.843 18.7464 17.5211 18.2792 18.0456C17.8121 18.57 17.1673 18.9036 16.469 18.9821C15.7705 19.0606 15.0677 18.8788 14.4953 18.4712C13.923 18.0638 13.5218 17.4595 13.3685 16.7746C13.2151 16.0895 13.3207 15.3722 13.6649 14.7602C14.0091 14.1483 14.5676 13.6849 15.2331 13.4592C15.2167 13.4056 15.2055 13.3507 15.1998 13.2949V11.8719C15.1998 11.7461 15.1497 11.6256 15.0607 11.5365C14.9716 11.4475 14.8507 11.3977 14.7248 11.3977H4.27503C4.01262 11.3977 3.79998 11.61 3.79998 11.8719V13.2949C3.79425 13.3507 3.78312 13.4056 3.76674 13.4592C4.62634 13.7508 5.29544 14.4339 5.56819 15.2985C5.8411 16.1633 5.68508 17.106 5.14818 17.8371C4.6114 18.5681 3.75786 19 2.85006 19C1.94209 19 1.08867 18.5682 0.551774 17.8371C0.0148748 17.106 -0.14102 16.1633 0.131766 15.2985C0.404678 14.4338 1.07377 13.7508 1.93321 13.4592C1.91699 13.4056 1.90586 13.3507 1.89997 13.2949V10.4489C1.89997 10.1973 2.00017 9.95603 2.17829 9.77815C2.35642 9.60012 2.59801 9.50022 2.85008 9.50022H8.55008V7.46905C7.34567 7.15856 6.36963 6.27898 5.9372 5.11437C5.50461 3.94971 5.67033 2.64738 6.38062 1.62759C7.09104 0.607964 8.25616 0 9.50003 0C10.7439 0 11.909 0.607964 12.6194 1.62759C13.3297 2.64738 13.4954 3.94971 13.0629 5.11437C12.6304 6.27902 11.6544 7.15854 10.45 7.46905V9.50022H16.15C16.4021 9.50022 16.6436 9.60012 16.8218 9.77815C16.9999 9.95603 17.1001 10.1973 17.1001 10.4489V13.2949C17.0942 13.3507 17.0831 13.4056 17.0668 13.4592C17.6292 13.6483 18.1182 14.0087 18.4651 14.4898C18.8118 14.9708 18.9989 15.5483 19 16.141L18.9998 16.141Z" fill="#B0B2BB"/>
</svg>
