<svg width="19" height="19" viewBox="0 0 19 19" fill="none" xmlns="http://www.w3.org/2000/svg">
<path d="M9.5 0C4.26215 0 0 4.26215 0 9.5C0 14.7378 4.26215 19 9.5 19C14.7378 19 19 14.7378 19 9.5C19 4.26215 14.7378 0 9.5 0ZM13.9015 5.90267L12.0015 11.6027C11.9382 11.7927 11.7925 11.9383 11.6026 12.0016L5.90256 13.9016C5.83286 13.9205 5.76953 13.9333 5.69983 13.9333C5.53514 13.9333 5.37044 13.8699 5.25013 13.7496C5.07907 13.5786 5.0221 13.3316 5.09816 13.1036L6.99816 7.40355C7.06149 7.21355 7.2071 7.06794 7.39709 7.00462L13.0971 5.10462C13.3251 5.02857 13.5785 5.08568 13.7432 5.25659C13.9204 5.42129 13.9776 5.67463 13.9015 5.90267H13.9015Z" fill="url(#paint0_linear_131_2)"/>
<defs>
<linearGradient id="paint0_linear_131_2" x1="0.000981203" y1="9.5041" x2="19.0015" y2="9.5041" gradientUnits="userSpaceOnUse">
<stop stop-color="#703FEC"/>
<stop offset="1" stop-color="#00B9E4"/>
</linearGradient>
</defs>
</svg>
