<svg width="190" height="54" viewBox="0 0 190 54" fill="none" xmlns="http://www.w3.org/2000/svg">
<path d="M50.749 16.3996H56.5571C58.8861 16.3996 60.6976 16.6888 61.9627 17.2383C63.2278 17.7879 64.2054 18.6556 64.953 19.8125C65.6718 20.9695 66.0456 22.2421 66.0456 23.6593C66.0456 24.9898 65.7294 26.1757 65.0968 27.2748C64.4642 28.3449 63.5154 29.2416 62.279 29.9068C63.8029 30.4274 64.9818 31.0348 65.8156 31.7579C66.6494 32.4521 67.282 33.3198 67.7421 34.3321C68.2021 35.3444 68.4321 36.4146 68.4321 37.6004C68.4321 39.9721 67.5695 41.9968 65.8444 43.6454C64.1192 45.294 61.7902 46.1328 58.8574 46.1328H50.749V16.3996ZM53.6531 19.2919V28.8077H55.3495C57.391 28.8077 58.9149 28.6052 59.8637 28.2292C60.8413 27.8532 61.5889 27.2458 62.164 26.4071C62.739 25.5683 62.9978 24.6717 62.9978 23.6593C62.9978 22.2999 62.5378 21.2298 61.5889 20.4488C60.6401 19.6679 59.1449 19.2919 57.0747 19.2919H53.6531ZM53.6531 31.8157V43.2116H57.3047C59.4612 43.2116 61.0426 43.0091 62.049 42.5753C63.0553 42.1414 63.8604 41.4762 64.4642 40.5795C65.068 39.6829 65.3843 38.6995 65.3843 37.6583C65.3843 36.3278 64.953 35.1998 64.0904 34.2164C63.2278 33.233 62.049 32.5678 60.5538 32.1917C59.5475 31.9604 57.7935 31.8157 55.292 31.8157H53.6531V31.8157Z" fill="#CAD8F1"/>
<path d="M73.4639 24.1221H76.2817V34.3899C76.2817 36.9062 76.4254 38.6127 76.6842 39.5672C77.0868 40.9266 77.8631 41.9678 78.9845 42.7488C80.1058 43.5297 81.4572 43.9057 83.0386 43.9057C84.62 43.9057 85.9427 43.5297 87.0353 42.7777C88.1279 42.0257 88.8755 41.0134 89.3068 39.7697C89.5943 38.9309 89.7381 37.1376 89.7381 34.3899V24.1221H92.6134V34.9105C92.6134 37.9475 92.2683 40.2324 91.5495 41.7654C90.8594 43.2983 89.7956 44.5131 88.3867 45.3808C86.9778 46.2485 85.1951 46.6824 83.0674 46.6824C80.9397 46.6824 79.157 46.2485 77.7481 45.3808C76.3104 44.5131 75.2466 43.2983 74.5565 41.7365C73.8664 40.1746 73.4926 37.8318 73.4926 34.7081V24.1221H73.4639Z" fill="#CAD8F1"/>
<path d="M120.59 15.6476V46.1039H117.83V42.3149C116.651 43.7611 115.328 44.8313 113.862 45.5544C112.395 46.2774 110.785 46.6534 109.06 46.6534C105.983 46.6534 103.338 45.5254 101.153 43.2694C98.9676 41.0134 97.875 38.2657 97.875 35.0552C97.875 31.9025 98.9676 29.1837 101.182 26.9277C103.396 24.6717 106.041 23.5436 109.146 23.5436C110.929 23.5436 112.568 23.9196 114.005 24.7006C115.443 25.4815 116.737 26.6095 117.83 28.1425V15.6476H120.59ZM109.376 26.2914C107.824 26.2914 106.357 26.6674 105.035 27.4483C103.712 28.2292 102.648 29.2994 101.872 30.7166C101.095 32.105 100.693 33.5801 100.693 35.1419C100.693 36.6749 101.095 38.1789 101.872 39.5672C102.648 40.9845 103.712 42.0835 105.035 42.8645C106.357 43.6454 107.795 44.0503 109.319 44.0503C110.843 44.0503 112.309 43.6743 113.689 42.8934C115.069 42.1125 116.133 41.0712 116.881 39.7407C117.628 38.4103 118.002 36.9063 118.002 35.2576C118.002 32.7124 117.168 30.601 115.501 28.8945C113.862 27.1591 111.82 26.2914 109.376 26.2914Z" fill="#CAD8F1"/>
<path d="M126.6 24.1221H129.417V34.3899C129.417 36.9062 129.561 38.6127 129.82 39.5672C130.222 40.9266 130.999 41.9678 132.12 42.7488C133.242 43.5297 134.593 43.9057 136.174 43.9057C137.756 43.9057 139.078 43.5297 140.171 42.7777C141.264 42.0257 142.011 41.0134 142.443 39.7697C142.73 38.9309 142.874 37.1376 142.874 34.3899V24.1221H145.749V34.9105C145.749 37.9475 145.404 40.2324 144.685 41.7654C143.995 43.2983 142.931 44.5131 141.522 45.3808C140.114 46.2485 138.331 46.6824 136.203 46.6824C134.075 46.6824 132.293 46.2485 130.884 45.3808C129.446 44.5131 128.382 43.2983 127.692 41.7365C127.002 40.1746 126.628 37.8318 126.628 34.7081V24.1221H126.6Z" fill="#CAD8F1"/>
<path d="M173.697 24.1221V46.075H170.937V42.286C169.758 43.7322 168.435 44.8023 166.969 45.5254C165.502 46.2485 163.892 46.6245 162.167 46.6245C159.09 46.6245 156.445 45.4965 154.26 43.2405C152.075 40.9844 150.982 38.2367 150.982 35.0262C150.982 31.8736 152.075 29.1548 154.289 26.8987C156.503 24.6427 159.148 23.5147 162.253 23.5147C164.036 23.5147 165.675 23.8907 167.112 24.6716C168.55 25.4526 169.844 26.5806 170.937 28.1135V24.0643H173.697V24.1221ZM162.483 26.2914C160.93 26.2914 159.464 26.6674 158.141 27.4483C156.819 28.2292 155.755 29.2994 154.979 30.7166C154.202 32.105 153.8 33.5801 153.8 35.1419C153.8 36.6749 154.202 38.1789 154.979 39.5672C155.755 40.9844 156.819 42.0835 158.141 42.8645C159.464 43.6454 160.902 44.0503 162.426 44.0503C163.95 44.0503 165.416 43.6743 166.796 42.8934C168.176 42.1125 169.24 41.0712 169.988 39.7407C170.735 38.4103 171.109 36.9062 171.109 35.2576C171.109 32.7124 170.275 30.6009 168.608 28.8945C166.969 27.1591 164.898 26.2914 162.483 26.2914Z" fill="#CAD8F1"/>
<path d="M178.959 24.1221H181.834V27.3326C182.697 26.06 183.588 25.1344 184.537 24.4981C185.486 23.8618 186.464 23.5726 187.499 23.5726C188.275 23.5726 189.109 23.8329 190 24.3246L188.534 26.6963C187.959 26.436 187.441 26.3203 187.039 26.3203C186.09 26.3203 185.198 26.6963 184.336 27.4772C183.473 28.2582 182.812 29.444 182.352 31.0927C182.007 32.3364 181.834 34.8816 181.834 38.6706V46.1039H178.959V24.1221Z" fill="#CAD8F1"/>
<path d="M38.4998 29.3862C38.4998 24.7006 35.7683 20.3332 31.4266 18.8581V12.2346C31.4266 5.49545 25.9635 0 19.2641 0C12.5359 0 7.07279 5.49545 7.07279 12.2346V18.8291C2.73108 20.3621 -0.00045306 24.7006 -0.00045306 29.3862C-0.00045306 29.4151 -0.00045306 29.444 -0.00045306 29.473C-0.0292061 30.7456 -0.00045393 43.5297 19.2353 53.9711C38.4711 43.5297 38.4999 30.7167 38.4711 29.473C38.4999 29.444 38.4998 29.4151 38.4998 29.3862ZM10.8394 12.2346C10.8394 7.57793 14.6061 3.76004 19.2641 3.76004C23.8933 3.76004 27.6887 7.54901 27.6887 12.2346V18.3085C22.9445 18.511 20.2129 21.9818 19.2641 25.2501C18.2865 21.9818 15.5549 18.511 10.8394 18.3085V12.2346ZM22.0819 42.4596H16.4463L17.1939 35.7493C16.1587 35.0552 15.4687 33.8693 15.4687 32.5388C15.4687 30.4274 17.1651 28.692 19.2928 28.692C21.3918 28.692 23.117 30.3985 23.117 32.5388C23.117 33.8982 22.4269 35.0552 21.3918 35.7493L22.0819 42.4596Z" fill="url(#paint0_linear_84_115)"/>
<defs>
<linearGradient id="paint0_linear_84_115" x1="-0.00045306" y1="26.9972" x2="38.5028" y2="26.9972" gradientUnits="userSpaceOnUse">
<stop stop-color="#00B9E4"/>
<stop offset="1" stop-color="#703FEC"/>
</linearGradient>
</defs>
</svg>
