<svg width="85" height="118" viewBox="0 0 85 118" fill="none" xmlns="http://www.w3.org/2000/svg">
<path d="M85 64.2487C85 54.0043 78.9697 44.4555 69.3847 41.2304V26.7492C69.3847 12.015 57.3241 0 42.5339 0C27.6803 0 15.6197 12.015 15.6197 26.7492V41.1672C6.0347 44.5188 0.00438959 54.0043 0.00438959 64.2487C0.00438959 64.3119 0.00438959 64.3751 0.00438959 64.4384C-0.0590873 67.2208 0.00438767 95.1715 42.4705 118C84.9365 95.1715 85 67.1576 84.9365 64.4384C85 64.3751 85 64.3119 85 64.2487ZM23.9352 26.7492C23.9352 16.5681 32.2507 8.22079 42.5339 8.22079C52.7537 8.22079 61.1327 16.5048 61.1327 26.7492V40.0289C50.659 40.4716 44.6287 48.06 42.5339 55.2058C40.3757 48.06 34.3454 40.4716 23.9352 40.0289V26.7492ZM48.7547 92.8317H36.3132L37.9636 78.1608C35.6784 76.6431 34.155 74.0504 34.155 71.1415C34.155 66.5252 37.9001 62.731 42.5974 62.731C47.2312 62.731 51.0398 66.4619 51.0398 71.1415C51.0398 74.1136 49.5164 76.6431 47.2312 78.1608L48.7547 92.8317Z" fill="url(#paint0_linear_162_16)"/>
<defs>
<linearGradient id="paint0_linear_162_16" x1="0.00438959" y1="59.0255" x2="85.0066" y2="59.0255" gradientUnits="userSpaceOnUse">
<stop stop-color="#703FEC"/>
<stop offset="1" stop-color="#00B9E4"/>
</linearGradient>
</defs>
</svg>
