<svg width="16" height="14" viewBox="0 0 16 14" fill="none" xmlns="http://www.w3.org/2000/svg">
<path d="M7.75497 13.1684C7.74846 13.1685 7.74196 13.1685 7.73545 13.1684C7.66086 13.1684 7.5853 13.1461 7.51963 13.0995C7.31249 12.9524 2.42312 9.46517 0.621554 6.52313C0.619144 6.51916 0.616854 6.51518 0.614444 6.5112C0.212455 5.84435 0 5.07877 0 4.29599C0 1.92715 1.92721 0 4.29599 0C5.66743 0 6.94102 0.651678 7.74487 1.73391C8.54885 0.651555 9.82259 0 11.1938 0C13.5626 0 15.4897 1.92721 15.4897 4.29599C15.4897 5.07877 15.2773 5.84432 14.8753 6.5112C14.873 6.51518 14.8708 6.51916 14.8682 6.52313C13.0669 9.46496 8.17742 12.9523 7.97012 13.0995C7.90492 13.1461 7.82937 13.1684 7.75454 13.1684H7.75497Z" fill="#B0B2BB"/>
</svg>
