<svg width="13" height="13" viewBox="0 0 13 13" fill="none" xmlns="http://www.w3.org/2000/svg">
<path fill-rule="evenodd" clip-rule="evenodd" d="M6.63989 0C10.1377 0 12.9997 2.80884 12.9997 6.30688C12.9997 9.80492 10.1377 12.6667 6.63989 12.6667C3.14207 12.6667 0.333008 9.80469 0.333008 6.30688C0.333008 2.80906 3.14185 0 6.63989 0ZM9.71382 7.57875C9.81985 8.95675 8.70682 9.59273 7.43495 9.69868C7.43495 10.1227 7.48796 10.6527 6.90498 10.6527C6.32202 10.6527 6.37502 10.1227 6.37502 9.69868C5.633 9.64566 4.78505 9.38068 4.36104 8.79771C3.46007 7.57875 4.78505 6.67779 5.42103 7.79071C6.16305 9.06268 8.12402 8.85071 8.12402 7.94966C8.12402 6.41272 4.14916 7.31368 4.14916 4.92889C4.14916 3.70992 5.31511 3.12696 6.37511 3.02092C6.37511 2.5969 6.26908 1.96092 6.90507 1.96092C7.54105 1.96092 7.43504 2.64992 7.43504 3.07385C8.07102 3.12686 8.86597 3.44485 9.23697 3.97481C9.81993 4.9288 8.81295 5.51176 8.22996 5.03481C7.647 4.55787 7.647 4.08083 6.69302 4.08083C6.32202 4.08083 5.68602 4.23978 5.68602 4.71681C5.57999 5.93577 9.50186 5.40581 9.7138 7.5788L9.71382 7.57875Z" fill="url(#paint0_linear_131_145)"/>
<defs>
<linearGradient id="paint0_linear_131_145" x1="0.333662" y1="6.33608" x2="13.0007" y2="6.33608" gradientUnits="userSpaceOnUse">
<stop stop-color="#703FEC"/>
<stop offset="1" stop-color="#00B9E4"/>
</linearGradient>
</defs>
</svg>
