<svg width="620" height="462" viewBox="0 0 620 462" fill="none" xmlns="http://www.w3.org/2000/svg">
<g clip-path="url(#clip0_84_207)">
<circle cx="319" cy="104" r="47.5" stroke="#A4A7E6"/>
<circle cx="319" cy="104" r="31.5" stroke="#A4A7E6"/>
<path d="M620 405.955H0V406.327H620V405.955Z" fill="#EBEBEB"/>
<path d="M557.876 425.918H516.832V426.29H557.876V425.918Z" fill="#EBEBEB"/>
<path d="M410.688 429.39H399.9V429.762H410.688V429.39Z" fill="#EBEBEB"/>
<path d="M515.592 414.51H491.784V414.883H515.592V414.51Z" fill="#EBEBEB"/>
<path d="M118.668 416.494H65.1001V416.866H118.668V416.494Z" fill="#EBEBEB"/>
<path d="M137.516 416.494H129.704V416.866H137.516V416.494Z" fill="#EBEBEB"/>
<path d="M279.248 421.826H163.06V422.198H279.248V421.826Z" fill="#EBEBEB"/>
<path d="M293.88 350.654H54.4362C50.5922 350.654 47.3682 347.43 47.3682 343.586V7.06763C47.3682 3.22383 50.5922 0 54.4362 0H293.88C297.724 0 300.948 3.22383 300.948 7.06763V343.586C300.948 347.554 297.848 350.654 293.88 350.654ZM54.4362 0.371981C50.7162 0.371981 47.6162 3.34783 47.6162 7.19163V343.71C47.6162 347.43 50.5922 350.53 54.4362 350.53H293.88C297.6 350.53 300.7 347.554 300.7 343.71V7.06763C300.7 3.34783 297.724 0.247987 293.88 0.247987H54.4362V0.371981Z" fill="#EBEBEB"/>
<path d="M562.092 350.654H322.648C318.804 350.654 315.58 347.43 315.58 343.586V7.06763C315.58 3.22383 318.804 0 322.648 0H562.092C565.936 0 569.16 3.22383 569.16 7.06763V343.586C569.16 347.554 566.06 350.654 562.092 350.654ZM322.648 0.371981C318.928 0.371981 315.828 3.34783 315.828 7.19163V343.71C315.828 347.43 318.804 350.53 322.648 350.53H562.092C565.812 350.53 568.912 347.554 568.912 343.71V7.06763C568.912 3.34783 565.936 0.247987 562.092 0.247987H322.648V0.371981Z" fill="#EBEBEB"/>
<path d="M310 462C442.789 462 550.436 455.727 550.436 447.989C550.436 440.25 442.789 433.977 310 433.977C177.211 433.977 69.564 440.25 69.564 447.989C69.564 455.727 177.211 462 310 462Z" fill="#F2F2FF"/>
<path d="M485.088 327.715H317.316C313.968 327.715 311.364 324.987 311.488 321.515L325.624 74.0241C325.872 70.5523 328.724 67.8245 332.196 67.8245H499.844C503.192 67.8245 505.796 70.5523 505.672 74.0241L491.536 321.515C491.288 324.987 488.436 327.715 485.088 327.715Z" fill="#263238"/>
<path opacity="0.3" d="M485.088 327.715H317.316C313.968 327.715 311.364 324.987 311.488 321.515L325.624 74.0241C325.872 70.5523 328.724 67.8245 332.196 67.8245H499.844C503.192 67.8245 505.796 70.5523 505.672 74.0241L491.536 321.515C491.288 324.987 488.436 327.715 485.088 327.715Z" fill="black"/>
<path d="M501.952 74.1482L487.816 321.639C487.692 325.111 484.716 327.839 481.244 327.839H313.596C310.248 327.839 307.644 325.111 307.768 321.639L311.364 259.023L321.904 74.1482C322.152 70.6763 325.004 67.9485 328.476 67.9485H496.124C499.472 67.9485 502.076 70.6763 501.952 74.1482Z" fill="#263238"/>
<path opacity="0.3" d="M497.488 150.652L487.816 321.639C487.568 324.987 484.716 327.839 481.368 327.839H313.596C310.248 327.839 307.644 325.111 307.768 321.639L317.44 150.652H497.488Z" fill="white"/>
<path opacity="0.4" d="M481.12 140.237H335.172L337.28 101.799H483.352L481.12 140.237Z" fill="white"/>
<path opacity="0.2" d="M476.78 84.1917H484.344L483.724 96.343H476.036L476.78 84.1917Z" fill="white"/>
<path opacity="0.2" d="M467.852 84.1917H475.416L474.796 96.343H467.108L467.852 84.1917Z" fill="white"/>
<path opacity="0.2" d="M458.924 84.1917H466.612L465.868 96.343H458.304L458.924 84.1917Z" fill="white"/>
<path opacity="0.2" d="M449.996 84.1917H457.684L456.94 96.343H449.376L449.996 84.1917Z" fill="white"/>
<path opacity="0.2" d="M441.192 84.1917H448.756L448.012 96.343H440.448L441.192 84.1917Z" fill="white"/>
<path opacity="0.2" d="M432.264 84.1917H439.828L439.208 96.343H431.52L432.264 84.1917Z" fill="white"/>
<path opacity="0.3" d="M362.576 92.0032H337.9L338.148 86.9194H362.824L362.576 92.0032Z" fill="white"/>
<path d="M478.268 161.688H459.916C458.552 161.688 457.436 162.804 457.312 164.167L456.94 170.491C456.816 171.855 457.932 172.971 459.296 172.971H477.648C479.012 172.971 480.128 171.855 480.252 170.491L480.624 164.167C480.748 162.804 479.632 161.688 478.268 161.688Z" fill="#263238"/>
<path d="M447.144 161.564H428.792C427.428 161.564 426.312 162.68 426.188 164.043L425.816 170.367C425.692 171.731 426.808 172.847 428.172 172.847H446.524C447.888 172.847 449.004 171.731 449.128 170.367L449.5 164.043C449.624 162.68 448.508 161.564 447.144 161.564Z" fill="#263238"/>
<path d="M477.276 179.419H458.924C457.56 179.419 456.444 180.535 456.32 181.899L455.948 188.222C455.824 189.586 456.94 190.702 458.304 190.702H476.656C478.02 190.702 479.136 189.586 479.26 188.222L479.632 181.899C479.756 180.535 478.64 179.419 477.276 179.419Z" fill="#263238"/>
<path d="M446.152 179.295H427.8C426.436 179.295 425.32 180.411 425.196 181.775L424.824 188.098C424.7 189.462 425.816 190.578 427.18 190.578H445.532C446.896 190.578 448.012 189.462 448.136 188.098L448.508 181.775C448.632 180.411 447.516 179.295 446.152 179.295Z" fill="#263238"/>
<path d="M415.152 179.419H396.8C395.436 179.419 394.32 180.535 394.196 181.899L393.824 188.222C393.7 189.586 394.816 190.702 396.18 190.702H414.532C415.896 190.702 417.012 189.586 417.136 188.222L417.508 181.899C417.508 180.535 416.516 179.419 415.152 179.419Z" fill="#263238"/>
<path d="M384.028 179.543H365.676C364.312 179.543 363.196 180.659 363.072 182.023L362.7 188.346C362.576 189.71 363.692 190.826 365.056 190.826H383.408C384.772 190.826 385.888 189.71 386.012 188.346L386.384 182.023C386.384 180.659 385.392 179.543 384.028 179.543Z" fill="#263238"/>
<path d="M352.904 179.667H334.552C333.188 179.667 332.072 180.783 331.948 182.146L331.576 188.47C331.452 189.834 332.568 190.95 333.932 190.95H352.284C353.648 190.95 354.764 189.834 354.888 188.47L355.26 182.146C355.26 180.783 354.268 179.667 352.904 179.667Z" fill="#263238"/>
<path d="M475.416 203.101H458.056C456.444 203.101 455.08 204.465 454.956 206.077L454.46 215.005C454.336 216.617 455.576 217.981 457.188 217.981H474.548C476.16 217.981 477.524 216.617 477.648 215.005L478.144 206.077C478.392 204.465 477.152 203.101 475.416 203.101Z" fill="#263238"/>
<path d="M444.416 202.977H427.056C425.444 202.977 424.08 204.341 423.956 205.953L423.46 214.881C423.336 216.493 424.576 217.857 426.188 217.857H443.548C445.16 217.857 446.524 216.493 446.648 214.881L447.144 205.953C447.268 204.341 446.028 202.977 444.416 202.977Z" fill="#263238"/>
<path d="M413.292 203.101H395.932C394.32 203.101 392.956 204.465 392.832 206.077L392.336 215.005C392.212 216.617 393.452 217.981 395.064 217.981H412.424C414.036 217.981 415.4 216.617 415.524 215.005L416.02 206.077C416.144 204.465 414.904 203.101 413.292 203.101Z" fill="#263238"/>
<path d="M382.168 203.225H364.808C363.196 203.225 361.832 204.589 361.708 206.201L361.212 215.129C361.088 216.741 362.328 218.105 363.94 218.105H381.3C382.912 218.105 384.276 216.741 384.4 215.129L384.896 206.201C385.02 204.589 383.78 203.225 382.168 203.225Z" fill="#263238"/>
<path d="M351.044 203.473H333.684C332.072 203.473 330.708 204.837 330.584 206.449L330.088 215.377C329.964 216.989 331.204 218.353 332.816 218.353H350.176C351.788 218.353 353.152 216.989 353.276 215.377L353.772 206.449C353.896 204.713 352.656 203.473 351.044 203.473Z" fill="#263238"/>
<path d="M439.208 293.865H421.848C420.236 293.865 418.872 295.229 418.748 296.841L418.252 305.768C418.128 307.38 419.368 308.744 420.98 308.744H438.34C439.952 308.744 441.316 307.38 441.44 305.768L441.936 296.841C442.06 295.229 440.82 293.865 439.208 293.865Z" fill="#263238"/>
<path d="M408.084 294.113H390.724C389.112 294.113 387.748 295.477 387.624 297.089L387.128 306.016C387.004 307.628 388.244 308.992 389.856 308.992H407.216C408.828 308.992 410.192 307.628 410.316 306.016L410.812 297.089C410.936 295.353 409.696 294.113 408.084 294.113Z" fill="#263238"/>
<path d="M376.96 294.237H359.6C357.988 294.237 356.624 295.601 356.5 297.213L356.004 306.14C355.88 307.752 357.12 309.116 358.732 309.116H376.092C377.704 309.116 379.068 307.752 379.192 306.14L379.688 297.213C379.812 295.477 378.572 294.237 376.96 294.237Z" fill="#263238"/>
<path d="M345.836 294.361H328.476C326.864 294.361 325.5 295.725 325.376 297.337L324.88 306.264C324.756 307.876 325.996 309.24 327.608 309.24H344.968C346.58 309.24 347.944 307.876 348.068 306.264L348.564 297.337C348.812 295.725 347.572 294.361 345.836 294.361Z" fill="#263238"/>
<path d="M471.572 271.298H454.212C452.6 271.298 451.236 272.662 451.112 274.274L450.616 282.085L450.492 283.201L449.252 305.892C449.128 307.504 450.368 308.868 451.98 308.868H469.34C470.952 308.868 472.316 307.504 472.44 305.892L473.68 283.201L473.804 282.085L474.3 274.274C474.424 272.662 473.184 271.298 471.572 271.298Z" fill="#263238"/>
<path d="M440.448 271.174H423.088C421.476 271.174 420.112 272.538 419.988 274.15L419.492 283.077C419.368 284.689 420.608 286.053 422.22 286.053H439.58C441.192 286.053 442.556 284.689 442.68 283.077L443.176 274.15C443.3 272.538 442.184 271.174 440.448 271.174Z" fill="#263238"/>
<path d="M409.448 271.298H392.088C390.476 271.298 389.112 272.662 388.988 274.274L388.492 283.201C388.368 284.813 389.608 286.177 391.22 286.177H408.58C410.192 286.177 411.556 284.813 411.68 283.201L412.176 274.274C412.3 272.662 411.06 271.298 409.448 271.298Z" fill="#263238"/>
<path d="M378.324 271.422H360.964C359.352 271.422 357.988 272.786 357.864 274.398L357.368 283.325C357.244 284.937 358.484 286.301 360.096 286.301H377.456C379.068 286.301 380.432 284.937 380.556 283.325L381.052 274.398C381.176 272.786 379.936 271.422 378.324 271.422Z" fill="#263238"/>
<path d="M347.2 271.67H329.84C328.228 271.67 326.864 273.034 326.74 274.646L326.244 283.573C326.12 285.185 327.36 286.549 328.972 286.549H346.332C347.944 286.549 349.308 285.185 349.432 283.573L349.928 274.646C350.052 272.91 348.812 271.67 347.2 271.67Z" fill="#263238"/>
<path d="M472.936 248.607H455.576C453.964 248.607 452.6 249.971 452.476 251.583L451.98 260.51C451.856 262.122 453.096 263.486 454.708 263.486H472.068C473.68 263.486 475.044 262.122 475.168 260.51L475.664 251.583C475.788 249.847 474.548 248.607 472.936 248.607Z" fill="#263238"/>
<path d="M441.812 248.483H424.452C422.84 248.483 421.476 249.847 421.352 251.459L420.856 260.386C420.732 261.998 421.972 263.362 423.584 263.362H440.944C442.556 263.362 443.92 261.998 444.044 260.386L444.54 251.459C444.664 249.723 443.424 248.483 441.812 248.483Z" fill="#263238"/>
<path d="M410.688 248.607H393.328C391.716 248.607 390.352 249.971 390.228 251.583L389.732 260.51C389.608 262.122 390.848 263.486 392.46 263.486H409.82C411.432 263.486 412.796 262.122 412.92 260.51L413.416 251.583C413.54 249.847 412.3 248.607 410.688 248.607Z" fill="#263238"/>
<path d="M379.564 248.731H362.204C360.592 248.731 359.228 250.095 359.104 251.707L358.608 260.634C358.484 262.246 359.724 263.61 361.336 263.61H378.696C380.308 263.61 381.672 262.246 381.796 260.634L382.292 251.707C382.416 250.095 381.176 248.731 379.564 248.731Z" fill="#263238"/>
<path d="M348.44 248.855H331.08C329.468 248.855 328.104 250.219 327.98 251.831L327.484 260.758C327.36 262.37 328.6 263.734 330.212 263.734H347.572C349.184 263.734 350.548 262.37 350.672 260.758L351.168 251.831C351.292 250.219 350.052 248.855 348.44 248.855Z" fill="#263238"/>
<path d="M474.176 225.916H456.816C455.204 225.916 453.84 227.28 453.716 228.892L453.22 237.82C453.096 239.432 454.336 240.795 455.948 240.795H473.308C474.92 240.795 476.284 239.432 476.408 237.82L476.904 228.892C477.028 227.156 475.788 225.916 474.176 225.916Z" fill="#263238"/>
<path d="M443.052 225.668H425.692C424.08 225.668 422.716 227.032 422.592 228.644L422.096 237.572C421.972 239.184 423.212 240.547 424.824 240.547H442.184C443.796 240.547 445.16 239.184 445.284 237.572L445.78 228.644C445.904 227.032 444.664 225.668 443.052 225.668Z" fill="#263238"/>
<path d="M411.928 225.916H394.568C392.956 225.916 391.592 227.28 391.468 228.892L390.972 237.82C390.848 239.432 392.088 240.795 393.7 240.795H411.06C412.672 240.795 414.036 239.432 414.16 237.82L414.656 228.892C414.904 227.156 413.664 225.916 411.928 225.916Z" fill="#263238"/>
<path d="M380.928 226.04H363.568C361.956 226.04 360.592 227.404 360.468 229.016L359.972 237.944C359.848 239.556 361.088 240.92 362.7 240.92H380.06C381.672 240.92 383.036 239.556 383.16 237.944L383.656 229.016C383.78 227.28 382.54 226.04 380.928 226.04Z" fill="#263238"/>
<path d="M349.804 226.164H332.444C330.832 226.164 329.468 227.528 329.344 229.14L328.848 238.068C328.724 239.679 329.964 241.043 331.576 241.043H348.936C350.548 241.043 351.912 239.679 352.036 238.068L352.532 229.14C352.656 227.528 351.416 226.164 349.804 226.164Z" fill="#263238"/>
<path d="M477.028 161.688H458.676C457.312 161.688 456.196 162.804 456.072 164.167L455.7 170.491C455.576 171.855 456.692 172.971 458.056 172.971H476.408C477.772 172.971 478.888 171.855 479.012 170.491L479.384 164.167C479.508 162.804 478.392 161.688 477.028 161.688Z" fill="#263238"/>
<path d="M445.904 161.564H427.552C426.188 161.564 425.072 162.68 424.948 164.043L424.576 170.367C424.452 171.731 425.568 172.847 426.932 172.847H445.284C446.648 172.847 447.764 171.731 447.888 170.367L448.26 164.043C448.384 162.68 447.268 161.564 445.904 161.564Z" fill="#263238"/>
<path d="M476.036 179.419H457.684C456.32 179.419 455.204 180.535 455.08 181.899L454.708 188.222C454.584 189.586 455.7 190.702 457.064 190.702H475.416C476.78 190.702 477.896 189.586 478.02 188.222L478.392 181.899C478.516 180.535 477.4 179.419 476.036 179.419Z" fill="#263238"/>
<path d="M444.912 179.295H426.56C425.196 179.295 424.08 180.411 423.956 181.775L423.584 188.098C423.46 189.462 424.576 190.578 425.94 190.578H444.292C445.656 190.578 446.772 189.462 446.896 188.098L447.268 181.775C447.392 180.411 446.276 179.295 444.912 179.295Z" fill="#263238"/>
<path d="M413.912 179.419H395.56C394.196 179.419 393.08 180.535 392.956 181.899L392.584 188.222C392.46 189.586 393.576 190.702 394.94 190.702H413.292C414.656 190.702 415.772 189.586 415.896 188.222L416.268 181.899C416.268 180.535 415.276 179.419 413.912 179.419Z" fill="#263238"/>
<path d="M382.788 179.543H364.436C363.072 179.543 361.956 180.659 361.832 182.023L361.46 188.346C361.336 189.71 362.452 190.826 363.816 190.826H382.168C383.532 190.826 384.648 189.71 384.772 188.346L385.144 182.023C385.144 180.659 384.152 179.543 382.788 179.543Z" fill="#263238"/>
<path d="M351.664 179.667H333.312C331.948 179.667 330.832 180.783 330.708 182.146L330.336 188.47C330.212 189.834 331.328 190.95 332.692 190.95H351.044C352.408 190.95 353.524 189.834 353.648 188.47L354.02 182.146C354.02 180.783 353.028 179.667 351.664 179.667Z" fill="#263238"/>
<path d="M474.176 203.101H456.816C455.204 203.101 453.84 204.465 453.716 206.077L453.22 215.005C453.096 216.617 454.336 217.981 455.948 217.981H473.308C474.92 217.981 476.284 216.617 476.408 215.005L476.904 206.077C477.152 204.465 475.912 203.101 474.176 203.101Z" fill="#263238"/>
<path d="M443.176 202.977H425.816C424.204 202.977 422.84 204.341 422.716 205.953L422.22 214.881C422.096 216.493 423.336 217.857 424.948 217.857H442.308C443.92 217.857 445.284 216.493 445.408 214.881L445.904 205.953C446.028 204.341 444.788 202.977 443.176 202.977Z" fill="#263238"/>
<path d="M412.052 203.101H394.692C393.08 203.101 391.716 204.465 391.592 206.077L391.096 215.005C390.972 216.617 392.212 217.981 393.824 217.981H411.184C412.796 217.981 414.16 216.617 414.284 215.005L414.78 206.077C414.904 204.465 413.664 203.101 412.052 203.101Z" fill="#263238"/>
<path d="M380.928 203.225H363.568C361.956 203.225 360.592 204.589 360.468 206.201L359.972 215.129C359.848 216.741 361.088 218.105 362.7 218.105H380.06C381.672 218.105 383.036 216.741 383.16 215.129L383.656 206.201C383.78 204.589 382.54 203.225 380.928 203.225Z" fill="#263238"/>
<path d="M349.804 203.473H332.444C330.832 203.473 329.468 204.837 329.344 206.449L328.848 215.377C328.724 216.989 329.964 218.353 331.576 218.353H348.936C350.548 218.353 351.912 216.989 352.036 215.377L352.532 206.449C352.656 204.713 351.416 203.473 349.804 203.473Z" fill="#263238"/>
<path d="M437.968 293.865H420.608C418.996 293.865 417.632 295.229 417.508 296.841L417.012 305.768C416.888 307.38 418.128 308.744 419.74 308.744H437.1C438.712 308.744 440.076 307.38 440.2 305.768L440.696 296.841C440.82 295.229 439.58 293.865 437.968 293.865Z" fill="#263238"/>
<path d="M406.844 294.113H389.484C387.872 294.113 386.508 295.477 386.384 297.089L385.888 306.016C385.764 307.628 387.004 308.992 388.616 308.992H405.976C407.588 308.992 408.952 307.628 409.076 306.016L409.572 297.089C409.696 295.353 408.456 294.113 406.844 294.113Z" fill="#263238"/>
<path d="M375.72 294.237H358.36C356.748 294.237 355.384 295.601 355.26 297.213L354.764 306.14C354.64 307.752 355.88 309.116 357.492 309.116H374.852C376.464 309.116 377.828 307.752 377.952 306.14L378.448 297.213C378.572 295.477 377.332 294.237 375.72 294.237Z" fill="#263238"/>
<path d="M344.596 294.361H327.236C325.624 294.361 324.26 295.725 324.136 297.337L323.64 306.264C323.516 307.876 324.756 309.24 326.368 309.24H343.728C345.34 309.24 346.704 307.876 346.828 306.264L347.324 297.337C347.572 295.725 346.332 294.361 344.596 294.361Z" fill="#263238"/>
<path d="M470.332 271.298H452.972C451.36 271.298 449.996 272.662 449.872 274.274L449.376 282.085L449.252 283.201L448.012 305.892C447.888 307.504 449.128 308.868 450.74 308.868H468.1C469.712 308.868 471.076 307.504 471.2 305.892L472.44 283.201L472.564 282.085L473.06 274.274C473.184 272.662 471.944 271.298 470.332 271.298Z" fill="#263238"/>
<path d="M439.208 271.174H421.848C420.236 271.174 418.872 272.538 418.748 274.15L418.252 283.077C418.128 284.689 419.368 286.053 420.98 286.053H438.34C439.952 286.053 441.316 284.689 441.44 283.077L441.936 274.15C442.06 272.538 440.944 271.174 439.208 271.174Z" fill="#263238"/>
<path d="M408.208 271.298H390.848C389.236 271.298 387.872 272.662 387.748 274.274L387.252 283.201C387.128 284.813 388.368 286.177 389.98 286.177H407.34C408.952 286.177 410.316 284.813 410.44 283.201L410.936 274.274C411.06 272.662 409.82 271.298 408.208 271.298Z" fill="#263238"/>
<path d="M377.084 271.422H359.724C358.112 271.422 356.748 272.786 356.624 274.398L356.128 283.325C356.004 284.937 357.244 286.301 358.856 286.301H376.216C377.828 286.301 379.192 284.937 379.316 283.325L379.812 274.398C379.936 272.786 378.696 271.422 377.084 271.422Z" fill="#263238"/>
<path d="M345.96 271.67H328.6C326.988 271.67 325.624 273.034 325.5 274.646L325.004 283.573C324.88 285.185 326.12 286.549 327.732 286.549H345.092C346.704 286.549 348.068 285.185 348.192 283.573L348.688 274.646C348.812 272.91 347.572 271.67 345.96 271.67Z" fill="#263238"/>
<path d="M471.696 248.607H454.336C452.724 248.607 451.36 249.971 451.236 251.583L450.74 260.51C450.616 262.122 451.856 263.486 453.468 263.486H470.828C472.44 263.486 473.804 262.122 473.928 260.51L474.424 251.583C474.548 249.847 473.308 248.607 471.696 248.607Z" fill="#263238"/>
<path d="M440.572 248.483H423.212C421.6 248.483 420.236 249.847 420.112 251.459L419.616 260.386C419.492 261.998 420.732 263.362 422.344 263.362H439.704C441.316 263.362 442.68 261.998 442.804 260.386L443.3 251.459C443.424 249.723 442.184 248.483 440.572 248.483Z" fill="#263238"/>
<path d="M409.448 248.607H392.088C390.476 248.607 389.112 249.971 388.988 251.583L388.492 260.51C388.368 262.122 389.608 263.486 391.22 263.486H408.58C410.192 263.486 411.556 262.122 411.68 260.51L412.176 251.583C412.3 249.847 411.06 248.607 409.448 248.607Z" fill="#263238"/>
<path d="M378.324 248.731H360.964C359.352 248.731 357.988 250.095 357.864 251.707L357.368 260.634C357.244 262.246 358.484 263.61 360.096 263.61H377.456C379.068 263.61 380.432 262.246 380.556 260.634L381.052 251.707C381.176 250.095 379.936 248.731 378.324 248.731Z" fill="#263238"/>
<path d="M347.2 248.855H329.84C328.228 248.855 326.864 250.219 326.74 251.831L326.244 260.758C326.12 262.37 327.36 263.734 328.972 263.734H346.332C347.944 263.734 349.308 262.37 349.432 260.758L349.928 251.831C350.052 250.219 348.812 248.855 347.2 248.855Z" fill="#263238"/>
<path d="M472.936 225.916H455.576C453.964 225.916 452.6 227.28 452.476 228.892L451.98 237.82C451.856 239.432 453.096 240.795 454.708 240.795H472.068C473.68 240.795 475.044 239.432 475.168 237.82L475.664 228.892C475.788 227.156 474.548 225.916 472.936 225.916Z" fill="#263238"/>
<path d="M441.812 225.668H424.452C422.84 225.668 421.476 227.032 421.352 228.644L420.856 237.572C420.732 239.184 421.972 240.547 423.584 240.547H440.944C442.556 240.547 443.92 239.184 444.044 237.572L444.54 228.644C444.664 227.032 443.424 225.668 441.812 225.668Z" fill="#263238"/>
<path d="M410.688 225.916H393.328C391.716 225.916 390.352 227.28 390.228 228.892L389.732 237.82C389.608 239.432 390.848 240.795 392.46 240.795H409.82C411.432 240.795 412.796 239.432 412.92 237.82L413.416 228.892C413.664 227.156 412.424 225.916 410.688 225.916Z" fill="#263238"/>
<path d="M379.688 226.04H362.328C360.716 226.04 359.352 227.404 359.228 229.016L358.732 237.944C358.608 239.556 359.848 240.92 361.46 240.92H378.82C380.432 240.92 381.796 239.556 381.92 237.944L382.416 229.016C382.54 227.28 381.3 226.04 379.688 226.04Z" fill="#263238"/>
<path d="M348.564 226.164H331.204C329.592 226.164 328.228 227.528 328.104 229.14L327.608 238.068C327.484 239.679 328.724 241.043 330.336 241.043H347.696C349.308 241.043 350.672 239.679 350.796 238.068L351.292 229.14C351.416 227.528 350.176 226.164 348.564 226.164Z" fill="#263238"/>
<g opacity="0.3">
<path d="M477.028 161.688H458.676C457.312 161.688 456.196 162.804 456.072 164.167L455.7 170.491C455.576 171.855 456.692 172.971 458.056 172.971H476.408C477.772 172.971 478.888 171.855 479.012 170.491L479.384 164.167C479.508 162.804 478.392 161.688 477.028 161.688Z" fill="white"/>
<path d="M445.904 161.564H427.552C426.188 161.564 425.072 162.68 424.948 164.043L424.576 170.367C424.452 171.731 425.568 172.847 426.932 172.847H445.284C446.648 172.847 447.764 171.731 447.888 170.367L448.26 164.043C448.384 162.68 447.268 161.564 445.904 161.564Z" fill="white"/>
<path d="M476.036 179.419H457.684C456.32 179.419 455.204 180.535 455.08 181.899L454.708 188.222C454.584 189.586 455.7 190.702 457.064 190.702H475.416C476.78 190.702 477.896 189.586 478.02 188.222L478.392 181.899C478.516 180.535 477.4 179.419 476.036 179.419Z" fill="white"/>
<path d="M444.912 179.295H426.56C425.196 179.295 424.08 180.411 423.956 181.775L423.584 188.098C423.46 189.462 424.576 190.578 425.94 190.578H444.292C445.656 190.578 446.772 189.462 446.896 188.098L447.268 181.775C447.392 180.411 446.276 179.295 444.912 179.295Z" fill="white"/>
<path d="M413.912 179.419H395.56C394.196 179.419 393.08 180.535 392.956 181.899L392.584 188.222C392.46 189.586 393.576 190.702 394.94 190.702H413.292C414.656 190.702 415.772 189.586 415.896 188.222L416.268 181.899C416.268 180.535 415.276 179.419 413.912 179.419Z" fill="white"/>
<path d="M382.788 179.543H364.436C363.072 179.543 361.956 180.659 361.832 182.023L361.46 188.346C361.336 189.71 362.452 190.826 363.816 190.826H382.168C383.532 190.826 384.648 189.71 384.772 188.346L385.144 182.023C385.144 180.659 384.152 179.543 382.788 179.543Z" fill="white"/>
<path d="M351.664 179.667H333.312C331.948 179.667 330.832 180.783 330.708 182.146L330.336 188.47C330.212 189.834 331.328 190.95 332.692 190.95H351.044C352.408 190.95 353.524 189.834 353.648 188.47L354.02 182.146C354.02 180.783 353.028 179.667 351.664 179.667Z" fill="white"/>
<path d="M474.176 203.101H456.816C455.204 203.101 453.84 204.465 453.716 206.077L453.22 215.005C453.096 216.617 454.336 217.981 455.948 217.981H473.308C474.92 217.981 476.284 216.617 476.408 215.005L476.904 206.077C477.152 204.465 475.912 203.101 474.176 203.101Z" fill="white"/>
<path d="M443.176 202.977H425.816C424.204 202.977 422.84 204.341 422.716 205.953L422.22 214.881C422.096 216.493 423.336 217.857 424.948 217.857H442.308C443.92 217.857 445.284 216.493 445.408 214.881L445.904 205.953C446.028 204.341 444.788 202.977 443.176 202.977Z" fill="white"/>
<path d="M412.052 203.101H394.692C393.08 203.101 391.716 204.465 391.592 206.077L391.096 215.005C390.972 216.617 392.212 217.981 393.824 217.981H411.184C412.796 217.981 414.16 216.617 414.284 215.005L414.78 206.077C414.904 204.465 413.664 203.101 412.052 203.101Z" fill="white"/>
<path d="M380.928 203.225H363.568C361.956 203.225 360.592 204.589 360.468 206.201L359.972 215.129C359.848 216.741 361.088 218.105 362.7 218.105H380.06C381.672 218.105 383.036 216.741 383.16 215.129L383.656 206.201C383.78 204.589 382.54 203.225 380.928 203.225Z" fill="white"/>
<path d="M349.804 203.473H332.444C330.832 203.473 329.468 204.837 329.344 206.449L328.848 215.377C328.724 216.989 329.964 218.353 331.576 218.353H348.936C350.548 218.353 351.912 216.989 352.036 215.377L352.532 206.449C352.656 204.713 351.416 203.473 349.804 203.473Z" fill="white"/>
<path d="M437.968 293.865H420.608C418.996 293.865 417.632 295.229 417.508 296.841L417.012 305.768C416.888 307.38 418.128 308.744 419.74 308.744H437.1C438.712 308.744 440.076 307.38 440.2 305.768L440.696 296.841C440.82 295.229 439.58 293.865 437.968 293.865Z" fill="white"/>
<path d="M406.844 294.113H389.484C387.872 294.113 386.508 295.477 386.384 297.089L385.888 306.016C385.764 307.628 387.004 308.992 388.616 308.992H405.976C407.588 308.992 408.952 307.628 409.076 306.016L409.572 297.089C409.696 295.353 408.456 294.113 406.844 294.113Z" fill="white"/>
<path d="M375.72 294.237H358.36C356.748 294.237 355.384 295.601 355.26 297.213L354.764 306.14C354.64 307.752 355.88 309.116 357.492 309.116H374.852C376.464 309.116 377.828 307.752 377.952 306.14L378.448 297.213C378.572 295.477 377.332 294.237 375.72 294.237Z" fill="white"/>
<path d="M344.596 294.361H327.236C325.624 294.361 324.26 295.725 324.136 297.337L323.64 306.264C323.516 307.876 324.756 309.24 326.368 309.24H343.728C345.34 309.24 346.704 307.876 346.828 306.264L347.324 297.337C347.572 295.725 346.332 294.361 344.596 294.361Z" fill="white"/>
<path d="M470.332 271.298H452.972C451.36 271.298 449.996 272.662 449.872 274.274L449.376 282.085L449.252 283.201L448.012 305.892C447.888 307.504 449.128 308.868 450.74 308.868H468.1C469.712 308.868 471.076 307.504 471.2 305.892L472.44 283.201L472.564 282.085L473.06 274.274C473.184 272.662 471.944 271.298 470.332 271.298Z" fill="white"/>
<path d="M439.208 271.174H421.848C420.236 271.174 418.872 272.538 418.748 274.15L418.252 283.077C418.128 284.689 419.368 286.053 420.98 286.053H438.34C439.952 286.053 441.316 284.689 441.44 283.077L441.936 274.15C442.06 272.538 440.944 271.174 439.208 271.174Z" fill="white"/>
<path d="M408.208 271.298H390.848C389.236 271.298 387.872 272.662 387.748 274.274L387.252 283.201C387.128 284.813 388.368 286.177 389.98 286.177H407.34C408.952 286.177 410.316 284.813 410.44 283.201L410.936 274.274C411.06 272.662 409.82 271.298 408.208 271.298Z" fill="white"/>
<path d="M377.084 271.422H359.724C358.112 271.422 356.748 272.786 356.624 274.398L356.128 283.325C356.004 284.937 357.244 286.301 358.856 286.301H376.216C377.828 286.301 379.192 284.937 379.316 283.325L379.812 274.398C379.936 272.786 378.696 271.422 377.084 271.422Z" fill="white"/>
<path d="M345.96 271.67H328.6C326.988 271.67 325.624 273.034 325.5 274.646L325.004 283.573C324.88 285.185 326.12 286.549 327.732 286.549H345.092C346.704 286.549 348.068 285.185 348.192 283.573L348.688 274.646C348.812 272.91 347.572 271.67 345.96 271.67Z" fill="white"/>
<path d="M471.696 248.607H454.336C452.724 248.607 451.36 249.971 451.236 251.583L450.74 260.51C450.616 262.122 451.856 263.486 453.468 263.486H470.828C472.44 263.486 473.804 262.122 473.928 260.51L474.424 251.583C474.548 249.847 473.308 248.607 471.696 248.607Z" fill="white"/>
<path d="M440.572 248.483H423.212C421.6 248.483 420.236 249.847 420.112 251.459L419.616 260.386C419.492 261.998 420.732 263.362 422.344 263.362H439.704C441.316 263.362 442.68 261.998 442.804 260.386L443.3 251.459C443.424 249.723 442.184 248.483 440.572 248.483Z" fill="white"/>
<path d="M409.448 248.607H392.088C390.476 248.607 389.112 249.971 388.988 251.583L388.492 260.51C388.368 262.122 389.608 263.486 391.22 263.486H408.58C410.192 263.486 411.556 262.122 411.68 260.51L412.176 251.583C412.3 249.847 411.06 248.607 409.448 248.607Z" fill="white"/>
<path d="M378.324 248.731H360.964C359.352 248.731 357.988 250.095 357.864 251.707L357.368 260.634C357.244 262.246 358.484 263.61 360.096 263.61H377.456C379.068 263.61 380.432 262.246 380.556 260.634L381.052 251.707C381.176 250.095 379.936 248.731 378.324 248.731Z" fill="white"/>
<path d="M347.2 248.855H329.84C328.228 248.855 326.864 250.219 326.74 251.831L326.244 260.758C326.12 262.37 327.36 263.734 328.972 263.734H346.332C347.944 263.734 349.308 262.37 349.432 260.758L349.928 251.831C350.052 250.219 348.812 248.855 347.2 248.855Z" fill="white"/>
<path d="M472.936 225.916H455.576C453.964 225.916 452.6 227.28 452.476 228.892L451.98 237.82C451.856 239.432 453.096 240.795 454.708 240.795H472.068C473.68 240.795 475.044 239.432 475.168 237.82L475.664 228.892C475.788 227.156 474.548 225.916 472.936 225.916Z" fill="white"/>
<path d="M441.812 225.668H424.452C422.84 225.668 421.476 227.032 421.352 228.644L420.856 237.572C420.732 239.184 421.972 240.547 423.584 240.547H440.944C442.556 240.547 443.92 239.184 444.044 237.572L444.54 228.644C444.664 227.032 443.424 225.668 441.812 225.668Z" fill="white"/>
<path d="M410.688 225.916H393.328C391.716 225.916 390.352 227.28 390.228 228.892L389.732 237.82C389.608 239.432 390.848 240.795 392.46 240.795H409.82C411.432 240.795 412.796 239.432 412.92 237.82L413.416 228.892C413.664 227.156 412.424 225.916 410.688 225.916Z" fill="white"/>
<path d="M379.688 226.04H362.328C360.716 226.04 359.352 227.404 359.228 229.016L358.732 237.944C358.608 239.556 359.848 240.92 361.46 240.92H378.82C380.432 240.92 381.796 239.556 381.92 237.944L382.416 229.016C382.54 227.28 381.3 226.04 379.688 226.04Z" fill="white"/>
<path d="M348.564 226.164H331.204C329.592 226.164 328.228 227.528 328.104 229.14L327.608 238.068C327.484 239.679 328.724 241.043 330.336 241.043H347.696C349.308 241.043 350.672 239.679 350.796 238.068L351.292 229.14C351.416 227.528 350.176 226.164 348.564 226.164Z" fill="white"/>
</g>
<g opacity="0.4">
<path d="M476.408 173.095H458.056C456.692 173.095 455.7 171.979 455.7 170.615L456.072 164.292C456.196 162.928 457.312 161.812 458.676 161.812H477.028C478.392 161.812 479.384 162.928 479.384 164.292L479.012 170.615C478.888 171.979 477.772 173.095 476.408 173.095Z" fill="black"/>
<path d="M445.284 172.971H426.932C425.568 172.971 424.576 171.855 424.576 170.491L424.948 164.167C425.072 162.804 426.188 161.688 427.552 161.688H445.904C447.268 161.688 448.26 162.804 448.26 164.167L447.888 170.491C447.888 171.855 446.648 172.971 445.284 172.971Z" fill="black"/>
</g>
<g opacity="0.4">
<path d="M475.416 190.702H457.064C455.7 190.702 454.708 189.586 454.708 188.222L455.08 181.899C455.204 180.535 456.32 179.419 457.684 179.419H476.036C477.4 179.419 478.392 180.535 478.392 181.899L478.02 188.222C477.896 189.586 476.78 190.702 475.416 190.702Z" fill="black"/>
<path d="M444.292 190.578H425.94C424.576 190.578 423.584 189.462 423.584 188.098L423.956 181.775C424.08 180.411 425.196 179.295 426.56 179.295H444.912C446.276 179.295 447.268 180.411 447.268 181.775L446.896 188.098C446.896 189.462 445.656 190.578 444.292 190.578Z" fill="black"/>
<path d="M413.168 190.702H394.816C393.452 190.702 392.46 189.586 392.46 188.222L392.832 181.899C392.956 180.535 394.072 179.419 395.436 179.419H413.788C415.152 179.419 416.144 180.535 416.144 181.899L415.772 188.222C415.772 189.586 414.532 190.702 413.168 190.702Z" fill="black"/>
<path d="M382.044 190.826H363.692C362.328 190.826 361.336 189.71 361.336 188.346L361.708 182.022C361.832 180.659 362.948 179.543 364.312 179.543H382.664C384.028 179.543 385.02 180.659 385.02 182.022L384.648 188.346C384.648 189.71 383.532 190.826 382.044 190.826Z" fill="black"/>
<path d="M351.044 190.95H332.692C331.328 190.95 330.336 189.834 330.336 188.47L330.708 182.146C330.832 180.783 331.948 179.667 333.312 179.667H351.664C353.028 179.667 354.02 180.783 354.02 182.146L353.648 188.47C353.524 189.834 352.408 190.95 351.044 190.95Z" fill="black"/>
</g>
<path opacity="0.2" d="M379.936 167.391H415.648C416.392 167.391 417.012 166.771 417.012 166.027C417.012 165.283 416.516 164.663 415.772 164.663H380.06C379.316 164.663 378.696 165.283 378.572 166.027C378.572 166.771 379.192 167.391 379.936 167.391Z" fill="black"/>
<path opacity="0.2" d="M332.94 167.391H368.652C369.396 167.391 370.016 166.771 370.14 166.027C370.14 165.283 369.644 164.663 368.9 164.663H333.188C332.444 164.663 331.824 165.283 331.824 166.027C331.576 166.771 332.196 167.391 332.94 167.391Z" fill="black"/>
<path d="M342.116 168.507H337.404C336.04 168.507 335.048 167.391 335.172 166.151C335.296 164.787 336.412 163.796 337.652 163.796H342.364C343.728 163.796 344.72 164.911 344.596 166.151C344.472 167.391 343.356 168.507 342.116 168.507Z" fill="#263238"/>
<path d="M408.828 168.383H404.116C402.752 168.383 401.76 167.267 401.884 166.027C402.008 164.663 403.124 163.672 404.364 163.672H409.076C410.44 163.672 411.432 164.787 411.308 166.027C411.308 167.391 410.068 168.383 408.828 168.383Z" fill="#263238"/>
<path opacity="0.5" d="M474.176 203.101H456.816C455.204 203.101 453.84 204.465 453.716 206.077L453.22 215.005C453.096 216.617 454.336 217.981 455.948 217.981H473.308C474.92 217.981 476.284 216.617 476.408 215.005L476.904 206.077C477.152 204.465 475.912 203.101 474.176 203.101Z" fill="black"/>
<path opacity="0.5" d="M443.176 202.977H425.816C424.204 202.977 422.84 204.341 422.716 205.953L422.22 214.881C422.096 216.493 423.336 217.857 424.948 217.857H442.308C443.92 217.857 445.284 216.493 445.408 214.881L445.904 205.953C446.028 204.341 444.788 202.977 443.176 202.977Z" fill="black"/>
<path opacity="0.5" d="M412.052 203.101H394.692C393.08 203.101 391.716 204.465 391.592 206.077L391.096 215.005C390.972 216.617 392.212 217.981 393.824 217.981H411.184C412.796 217.981 414.16 216.617 414.284 215.005L414.78 206.077C414.904 204.465 413.664 203.101 412.052 203.101Z" fill="black"/>
<path opacity="0.5" d="M380.928 203.225H363.568C361.956 203.225 360.592 204.589 360.468 206.201L359.972 215.129C359.848 216.741 361.088 218.105 362.7 218.105H380.06C381.672 218.105 383.036 216.741 383.16 215.129L383.656 206.201C383.78 204.589 382.54 203.225 380.928 203.225Z" fill="black"/>
<path opacity="0.5" d="M349.804 203.473H332.444C330.832 203.473 329.468 204.837 329.344 206.449L328.848 215.377C328.724 216.989 329.964 218.353 331.576 218.353H348.936C350.548 218.353 351.912 216.989 352.036 215.377L352.532 206.449C352.656 204.713 351.416 203.473 349.804 203.473Z" fill="black"/>
<path opacity="0.5" d="M437.968 293.865H420.608C418.996 293.865 417.632 295.229 417.508 296.841L417.012 305.768C416.888 307.38 418.128 308.744 419.74 308.744H437.1C438.712 308.744 440.076 307.38 440.2 305.768L440.696 296.841C440.82 295.229 439.58 293.865 437.968 293.865Z" fill="black"/>
<path opacity="0.5" d="M406.844 294.113H389.484C387.872 294.113 386.508 295.477 386.384 297.089L385.888 306.016C385.764 307.628 387.004 308.992 388.616 308.992H405.976C407.588 308.992 408.952 307.628 409.076 306.016L409.572 297.089C409.696 295.353 408.456 294.113 406.844 294.113Z" fill="black"/>
<path opacity="0.5" d="M375.72 294.237H358.36C356.748 294.237 355.384 295.601 355.26 297.213L354.764 306.14C354.64 307.752 355.88 309.116 357.492 309.116H374.852C376.464 309.116 377.828 307.752 377.952 306.14L378.448 297.213C378.572 295.477 377.332 294.237 375.72 294.237Z" fill="black"/>
<path opacity="0.5" d="M344.596 294.361H327.236C325.624 294.361 324.26 295.725 324.136 297.337L323.64 306.264C323.516 307.876 324.756 309.24 326.368 309.24H343.728C345.34 309.24 346.704 307.876 346.828 306.264L347.324 297.337C347.572 295.725 346.332 294.361 344.596 294.361Z" fill="black"/>
<path opacity="0.3" d="M470.332 271.298H452.972C451.36 271.298 449.996 272.662 449.872 274.274L449.376 282.085L449.252 283.201L448.012 305.892C447.888 307.504 449.128 308.868 450.74 308.868H468.1C469.712 308.868 471.076 307.504 471.2 305.892L472.44 283.201L472.564 282.085L473.06 274.274C473.184 272.662 471.944 271.298 470.332 271.298Z" fill="black"/>
<path opacity="0.5" d="M439.208 271.174H421.848C420.236 271.174 418.872 272.538 418.748 274.15L418.252 283.077C418.128 284.689 419.368 286.053 420.98 286.053H438.34C439.952 286.053 441.316 284.689 441.44 283.077L441.936 274.15C442.06 272.538 440.944 271.174 439.208 271.174Z" fill="black"/>
<path opacity="0.5" d="M408.208 271.298H390.848C389.236 271.298 387.872 272.662 387.748 274.274L387.252 283.201C387.128 284.813 388.368 286.177 389.98 286.177H407.34C408.952 286.177 410.316 284.813 410.44 283.201L410.936 274.274C411.06 272.662 409.82 271.298 408.208 271.298Z" fill="black"/>
<path opacity="0.5" d="M377.084 271.422H359.724C358.112 271.422 356.748 272.786 356.624 274.398L356.128 283.325C356.004 284.937 357.244 286.301 358.856 286.301H376.216C377.828 286.301 379.192 284.937 379.316 283.325L379.812 274.398C379.936 272.786 378.696 271.422 377.084 271.422Z" fill="black"/>
<path opacity="0.3" d="M345.96 271.67H328.6C326.988 271.67 325.624 273.034 325.5 274.646L325.004 283.573C324.88 285.185 326.12 286.549 327.732 286.549H345.092C346.704 286.549 348.068 285.185 348.192 283.573L348.688 274.646C348.812 272.91 347.572 271.67 345.96 271.67Z" fill="black"/>
<path opacity="0.5" d="M471.696 248.607H454.336C452.724 248.607 451.36 249.971 451.236 251.583L450.74 260.51C450.616 262.122 451.856 263.486 453.468 263.486H470.828C472.44 263.486 473.804 262.122 473.928 260.51L474.424 251.583C474.548 249.847 473.308 248.607 471.696 248.607Z" fill="black"/>
<path opacity="0.5" d="M440.572 248.483H423.212C421.6 248.483 420.236 249.847 420.112 251.459L419.616 260.386C419.492 261.998 420.732 263.362 422.344 263.362H439.704C441.316 263.362 442.68 261.998 442.804 260.386L443.3 251.459C443.424 249.723 442.184 248.483 440.572 248.483Z" fill="black"/>
<path opacity="0.5" d="M409.448 248.607H392.088C390.476 248.607 389.112 249.971 388.988 251.583L388.492 260.51C388.368 262.122 389.608 263.486 391.22 263.486H408.58C410.192 263.486 411.556 262.122 411.68 260.51L412.176 251.583C412.3 249.847 411.06 248.607 409.448 248.607Z" fill="black"/>
<path opacity="0.5" d="M378.324 248.731H360.964C359.352 248.731 357.988 250.095 357.864 251.707L357.368 260.634C357.244 262.246 358.484 263.61 360.096 263.61H377.456C379.068 263.61 380.432 262.246 380.556 260.634L381.052 251.707C381.176 250.095 379.936 248.731 378.324 248.731Z" fill="black"/>
<path opacity="0.3" d="M347.2 248.855H329.84C328.228 248.855 326.864 250.219 326.74 251.831L326.244 260.758C326.12 262.37 327.36 263.734 328.972 263.734H346.332C347.944 263.734 349.308 262.37 349.432 260.758L349.928 251.831C350.052 250.219 348.812 248.855 347.2 248.855Z" fill="black"/>
<path opacity="0.5" d="M472.936 225.916H455.576C453.964 225.916 452.6 227.28 452.476 228.892L451.98 237.82C451.856 239.432 453.096 240.795 454.708 240.795H472.068C473.68 240.795 475.044 239.432 475.168 237.82L475.664 228.892C475.788 227.156 474.548 225.916 472.936 225.916Z" fill="black"/>
<path opacity="0.5" d="M441.812 225.668H424.452C422.84 225.668 421.476 227.032 421.352 228.644L420.856 237.572C420.732 239.184 421.972 240.547 423.584 240.547H440.944C442.556 240.547 443.92 239.184 444.044 237.572L444.54 228.644C444.664 227.032 443.424 225.668 441.812 225.668Z" fill="black"/>
<path opacity="0.5" d="M410.688 225.916H393.328C391.716 225.916 390.352 227.28 390.228 228.892L389.732 237.82C389.608 239.432 390.848 240.795 392.46 240.795H409.82C411.432 240.795 412.796 239.432 412.92 237.82L413.416 228.892C413.664 227.156 412.424 225.916 410.688 225.916Z" fill="black"/>
<path opacity="0.5" d="M379.688 226.04H362.328C360.716 226.04 359.352 227.404 359.228 229.016L358.732 237.944C358.608 239.556 359.848 240.92 361.46 240.92H378.82C380.432 240.92 381.796 239.556 381.92 237.944L382.416 229.016C382.54 227.28 381.3 226.04 379.688 226.04Z" fill="black"/>
<path opacity="0.5" d="M348.564 226.164H331.204C329.592 226.164 328.228 227.528 328.104 229.14L327.608 238.068C327.484 239.679 328.724 241.043 330.336 241.043H347.696C349.308 241.043 350.672 239.679 350.796 238.068L351.292 229.14C351.416 227.528 350.176 226.164 348.564 226.164Z" fill="black"/>
<path d="M120.776 378.552C120.776 378.552 113.088 380.164 109.864 378.552C106.64 376.94 107.756 352.514 104.532 352.018C96.8441 350.902 98.2081 383.14 101.432 389.96C104.656 396.779 121.52 393.928 121.52 393.928L120.776 378.552Z" fill="#5E53EB"/>
<path opacity="0.2" d="M120.776 378.552C120.776 378.552 113.088 380.164 109.864 378.552C106.64 376.94 107.756 352.514 104.532 352.018C96.8441 350.902 98.2081 383.14 101.432 389.96C104.656 396.779 121.52 393.928 121.52 393.928L120.776 378.552Z" fill="white"/>
<path d="M121.396 435.837C121.396 435.837 110.112 270.802 123.628 268.818C137.144 266.958 140.492 325.111 135.16 433.729L121.396 435.837Z" fill="#5E53EB"/>
<path opacity="0.3" d="M121.396 435.837C121.396 435.837 110.112 270.802 123.628 268.818C137.144 266.958 140.492 325.111 135.16 433.729L121.396 435.837Z" fill="white"/>
<path d="M105.524 423.686H150.04L146.32 452.205H109.244L105.524 423.686Z" fill="#263238"/>
<path d="M134.912 323.003C134.912 323.003 147.312 324.119 147.684 323.003C148.056 321.887 148.056 298.576 153.264 299.94C158.472 301.304 156.24 329.451 153.264 332.675C150.288 335.899 134.912 337.758 134.912 337.758C134.912 337.758 132.804 327.467 134.912 323.003Z" fill="#5E53EB"/>
<path opacity="0.4" d="M134.912 323.003C134.912 323.003 147.312 324.119 147.684 323.003C148.056 321.887 148.056 298.576 153.264 299.94C158.472 301.304 156.24 329.451 153.264 332.675C150.288 335.899 134.912 337.758 134.912 337.758C134.912 337.758 132.804 327.467 134.912 323.003Z" fill="white"/>
<path d="M127.1 420.834C126.232 408.311 125.488 395.664 124.744 383.14C124 370.617 123.38 357.969 122.884 345.446C122.388 332.923 122.016 320.275 121.892 307.752C121.768 301.428 121.768 295.105 122.016 288.905C122.14 285.805 122.264 282.581 122.512 279.482C122.636 277.87 122.884 276.382 123.132 274.77C123.256 274.026 123.504 273.158 123.752 272.414L124 271.794C124.124 271.546 124.248 271.422 124.496 271.174C124.62 271.05 124.744 270.926 124.992 270.926C125.24 270.802 125.488 270.802 125.736 270.926C126.108 271.05 126.356 271.422 126.48 271.546C126.976 272.414 127.1 273.158 127.348 273.902C127.472 274.646 127.72 275.514 127.844 276.258C128.092 277.87 128.34 279.358 128.464 280.969C128.836 284.069 129.084 287.293 129.208 290.393C129.58 296.717 129.952 302.916 130.2 309.24C130.696 321.763 130.944 334.411 131.192 346.934C131.316 359.581 131.44 372.105 131.564 384.752C131.564 397.399 131.564 409.923 131.44 422.57C131.316 410.047 131.192 397.399 130.944 384.876C130.82 372.353 130.572 359.705 130.324 347.182C129.952 334.659 129.704 322.011 129.208 309.488C128.96 303.164 128.588 296.965 128.216 290.641C127.968 287.541 127.72 284.317 127.348 281.217C127.224 279.606 126.976 278.118 126.728 276.63C126.604 275.886 126.48 275.142 126.232 274.398C126.108 273.654 125.86 272.91 125.488 272.414C125.364 272.29 125.364 272.29 125.364 272.29C125.488 272.29 125.612 272.166 125.488 272.29L125.24 272.662L124.992 273.158C124.744 273.778 124.62 274.522 124.372 275.39C124.124 276.878 123.876 278.49 123.752 279.978C123.504 283.077 123.38 286.177 123.256 289.401C123.008 295.725 123.008 301.924 123.132 308.248C123.256 320.771 123.628 333.419 124 345.942C124.372 358.465 124.868 371.113 125.488 383.636C125.86 395.664 126.356 408.187 127.1 420.834Z" fill="#5E53EB"/>
<path d="M136.4 328.583C138.012 328.459 139.624 328.335 141.112 328.087C142.724 327.963 144.336 327.715 145.824 327.467C146.568 327.343 147.312 327.219 148.056 326.971C148.8 326.847 149.544 326.351 149.296 326.227C149.172 325.235 149.296 324.491 149.296 323.747C149.296 323.003 149.42 322.135 149.42 321.391C149.668 318.167 150.04 315.068 150.536 311.844C151.032 308.744 151.528 305.52 152.396 302.42C152.272 304.032 152.148 305.644 152.024 307.132L151.652 311.844L150.784 321.391C150.66 323.003 150.536 324.615 150.536 325.979V326.103C150.536 326.227 150.536 326.351 150.536 326.475C150.536 326.599 150.412 326.847 150.288 326.971C150.04 327.219 149.792 327.343 149.668 327.467C149.296 327.715 148.8 327.839 148.428 327.963C147.56 328.211 146.816 328.335 145.948 328.335C142.848 328.831 139.624 328.831 136.4 328.583Z" fill="#5E53EB"/>
<path d="M136.4 333.915L141.608 332.799C143.344 332.427 145.08 332.055 146.816 331.683C148.552 331.187 150.412 330.815 151.9 330.195C152.024 330.071 152.272 329.947 152.272 330.071C152.396 329.947 152.396 329.823 152.52 329.575C152.644 329.203 152.768 328.831 152.768 328.335C152.892 327.467 153.016 326.599 153.14 325.731C153.512 322.135 153.76 318.663 154.008 315.068L154.38 309.736L154.752 304.404C155 308 155 311.596 155 315.192C155 318.787 154.752 322.383 154.38 325.979C154.256 326.847 154.132 327.839 154.008 328.707C153.884 329.203 153.76 329.575 153.636 330.071C153.512 330.319 153.388 330.567 153.264 330.815C152.892 331.187 152.768 331.187 152.52 331.311C150.66 332.055 148.924 332.303 147.188 332.675C143.592 333.171 139.996 333.667 136.4 333.915Z" fill="#5E53EB"/>
<path d="M116.932 383.016C113.832 383.016 110.608 382.892 107.508 381.9C107.136 381.776 106.764 381.652 106.392 381.404C106.268 381.28 105.896 381.032 105.772 380.908C105.648 380.66 105.524 380.536 105.4 380.288C105.028 379.544 104.904 378.676 104.78 377.932C104.532 376.321 104.284 374.833 104.16 373.221C103.912 370.121 103.788 366.897 103.788 363.797C103.788 360.697 103.912 357.473 104.16 354.374L104.532 359.085L104.78 363.797C105.028 366.897 105.152 369.997 105.4 373.097C105.524 374.709 105.648 376.197 105.896 377.684C106.02 378.428 106.144 379.172 106.392 379.792C106.392 379.916 106.516 380.04 106.64 380.288C106.764 380.412 106.764 380.412 106.888 380.536C107.136 380.784 107.508 380.908 107.88 381.032C109.244 381.652 110.856 381.9 112.344 382.272C113.832 382.644 115.444 382.892 116.932 383.016Z" fill="#5E53EB"/>
<path d="M102.052 357.225C102.176 359.085 102.3 360.945 102.548 362.681L102.92 368.137C103.168 371.857 103.416 375.453 103.664 379.048C103.788 380.908 103.912 382.644 104.16 384.504C104.284 385.372 104.408 386.364 104.656 387.108C104.904 387.852 105.524 388.224 106.392 388.596C108.004 389.34 109.864 389.712 111.6 389.96C113.336 390.332 115.196 390.456 117.056 390.704C113.336 390.704 109.616 390.704 106.02 389.464C105.524 389.216 105.152 389.092 104.656 388.72C104.284 388.472 103.788 387.976 103.664 387.48C103.292 386.488 103.168 385.62 103.044 384.628C102.796 382.768 102.548 380.908 102.424 379.172C102.176 375.452 101.928 371.857 101.928 368.137C101.804 364.665 101.804 360.945 102.052 357.225Z" fill="#5E53EB"/>
<path d="M177.94 429.142L210.924 426.29V377.188H222.456V426.29L255.564 429.142C258.416 429.39 260.648 431.87 260.648 434.845V439.185H217.868H215.76H172.98V434.845C172.856 431.87 175.088 429.39 177.94 429.142Z" fill="#263238"/>
<path opacity="0.1" d="M177.94 429.142L210.924 426.29V377.188H222.456V426.29L255.564 429.142C258.416 429.39 260.648 431.87 260.648 434.845V439.185H217.868H215.76H172.98V434.845C172.856 431.87 175.088 429.39 177.94 429.142Z" fill="white"/>
<path d="M249.984 444.641C249.984 448.857 253.332 452.204 257.548 452.204C261.764 452.204 265.112 448.857 265.112 444.641C265.112 440.425 261.764 437.077 257.548 437.077C253.456 437.077 249.984 440.425 249.984 444.641Z" fill="#263238"/>
<path d="M183.52 444.641C183.52 448.857 180.172 452.204 175.956 452.204C171.74 452.204 168.392 448.857 168.392 444.641C168.392 440.425 171.74 437.077 175.956 437.077C180.172 437.077 183.52 440.425 183.52 444.641Z" fill="#263238"/>
<path d="M214.024 385.992H219.356C222.208 385.992 224.44 383.636 224.44 380.908V341.106H208.816V380.908C208.94 383.76 211.172 385.992 214.024 385.992Z" fill="#263238"/>
<path opacity="0.2" d="M214.024 385.992H219.356C222.208 385.992 224.44 383.636 224.44 380.908V341.106H208.816V380.908C208.94 383.76 211.172 385.992 214.024 385.992Z" fill="white"/>
<path d="M182.528 255.551C182.528 255.551 186.124 327.095 201.5 339.37H185.008C185.008 339.37 170.376 315.068 169.26 255.551H182.528Z" fill="#263238"/>
<path opacity="0.1" d="M182.528 255.551C182.528 255.551 186.124 327.095 201.5 339.37H185.008C185.008 339.37 170.376 315.068 169.26 255.551H182.528Z" fill="white"/>
<path d="M254.2 333.419H181.164C177.692 333.419 174.964 336.146 174.964 339.618V345.322H260.4V339.618C260.4 336.146 257.672 333.419 254.2 333.419Z" fill="url(#paint0_linear_84_207)"/>
<path d="M261.268 339.37H174.344C172.98 339.37 171.864 340.486 171.864 341.85V342.842C171.864 344.206 172.98 345.322 174.344 345.322H261.268C262.632 345.322 263.748 344.206 263.748 342.842V341.85C263.748 340.486 262.632 339.37 261.268 339.37Z" fill="#263238"/>
<path opacity="0.6" d="M261.268 339.37H174.344C172.98 339.37 171.864 340.486 171.864 341.85V342.842C171.864 344.206 172.98 345.322 174.344 345.322H261.268C262.632 345.322 263.748 344.206 263.748 342.842V341.85C263.748 340.486 262.632 339.37 261.268 339.37Z" fill="white"/>
<path d="M166.408 271.174H192.82C200.508 271.174 206.088 264.23 205.344 255.675L204.228 244.267C203.36 235.712 196.416 228.768 188.728 228.768H162.316C154.628 228.768 149.048 235.712 149.792 244.267L150.908 255.675C151.652 264.23 158.596 271.174 166.408 271.174Z" fill="url(#paint1_linear_84_207)"/>
<path d="M304.048 255.675L311.488 256.543C311.488 256.543 316.324 254.435 316.448 254.187C316.448 254.063 322.896 256.543 322.896 256.543L324.136 261.254C324.136 261.254 314.96 262.246 313.224 261.254L303.428 261.626L304.048 255.675Z" fill="#F7A491"/>
<path d="M308.14 262.742H279.372C276.396 262.742 272.428 255.551 269.328 248.731C266.476 242.407 264.244 236.456 264.244 236.456L267.344 228.768L270.444 221.204C276.272 225.296 283.464 252.575 283.464 252.575L308.14 255.799C308.14 255.799 308.884 262.742 308.14 262.742Z" fill="url(#paint2_linear_84_207)"/>
<path d="M306.9 255.675L305.536 263.61H309.256V255.675H306.9Z" fill="url(#paint3_linear_84_207)"/>
<path opacity="0.6" d="M306.9 255.675L305.536 263.61H309.256V255.675H306.9Z" fill="white"/>
<path opacity="0.2" d="M269.328 248.731C266.476 242.407 264.244 236.456 264.244 236.456L267.344 228.768C268.708 232.116 271.56 241.043 269.328 248.731Z" fill="black"/>
<path d="M274.908 196.158C274.908 196.158 272.056 207.317 275.652 212.277C275.652 212.277 243.164 212.649 234.112 206.821C224.936 200.994 235.228 172.103 248.62 167.763C261.888 163.299 284.084 174.211 274.908 196.158Z" fill="#263238"/>
<path d="M338.892 407.691L331.824 409.055C331.824 409.055 292.888 315.688 286.688 315.44C280.488 315.192 217.372 344.206 201.5 328.087C185.628 311.968 208.568 273.282 208.568 273.282C208.568 273.282 246.636 267.826 249.488 276.506C250.108 278.118 250.604 281.465 251.1 284.193C251.596 286.797 251.844 289.029 251.844 289.029C252.96 288.781 291.276 278.861 306.28 289.029C321.532 299.32 338.892 407.691 338.892 407.691Z" fill="#F7A491"/>
<path d="M228.904 332.055C228.904 332.055 231.508 332.055 271.436 330.195C271.436 330.195 263.996 398.763 260.772 436.085L269.08 436.581C269.08 436.581 302.684 339.494 302.312 326.847C301.94 314.2 287.432 310.48 287.432 310.48C287.432 310.48 258.912 326.847 228.904 332.055Z" fill="#F7A491"/>
<path d="M228.904 332.055C229.276 332.055 233.368 332.055 264.492 330.567L263.872 321.639C253.828 325.731 241.552 329.823 228.904 332.055Z" fill="#263238"/>
<path opacity="0.02" d="M271.312 330.195C271.312 330.195 263.872 398.763 260.648 436.085L268.956 436.581C268.956 436.581 302.56 339.494 302.188 326.847C301.816 314.2 287.308 310.48 287.308 310.48C287.308 310.48 277.76 316.06 263.872 321.639C253.828 325.731 241.428 329.823 228.904 332.055C229.276 332.055 233.368 332.055 264.492 330.567C266.6 330.443 268.956 330.319 271.312 330.195Z" fill="black"/>
<path d="M201.5 328.211C210.924 337.882 244.404 335.278 267.468 335.278L281.356 284.193L253.456 286.549C253.456 286.549 252.464 284.069 251.472 281.465C250.604 279.357 249.736 277.125 249.488 276.382C246.636 267.826 208.568 273.158 208.568 273.158C208.568 273.158 185.752 312.092 201.5 328.211Z" fill="#263238"/>
<path opacity="0.3" d="M229.648 293.617L253.456 286.549C253.456 286.549 252.464 284.069 251.472 281.465C242.172 285.309 229.648 293.617 229.648 293.617Z" fill="black"/>
<path d="M209.56 267.454L208.568 273.282L249.488 276.506L250.604 269.438L209.56 267.454Z" fill="#263238"/>
<path opacity="0.2" d="M209.56 267.454L208.568 273.282L249.488 276.506L250.604 269.438L209.56 267.454Z" fill="black"/>
<path d="M223.357 266.974L221.384 266.771L220.331 277.009L222.305 277.212L223.357 266.974Z" fill="#263238"/>
<path d="M241.006 269.474L232.097 268.902L231.66 275.707L240.569 276.28L241.006 269.474Z" fill="white"/>
<path d="M248.526 268.053L246.553 267.85L245.5 278.087L247.473 278.29L248.526 268.053Z" fill="#263238"/>
<path d="M358.98 417.486C357.244 416.99 355.508 416.866 353.772 416.99C353.772 416.99 347.2 414.386 339.016 401.739L332.32 402.731C329.964 403.103 328.228 404.963 327.856 407.195C327.856 407.567 327.732 407.815 327.856 408.187C328.228 409.799 328.6 411.411 329.096 412.898C330.46 417.734 335.544 427.902 335.544 427.902L336.66 427.406L332.94 417.734C331.7 414.51 335.792 417.114 338.024 420.338C340.256 423.438 343.356 426.538 350.424 423.562C358.732 420.462 361.956 418.602 358.98 417.486Z" fill="#2E353A"/>
<path d="M335.916 397.399C335.916 397.399 340.008 403.103 344.968 409.179C349.928 415.254 353.772 417.114 353.772 417.114C353.772 417.114 348.936 420.338 345.092 417.734C341.248 415.13 332.94 404.467 327.856 407.319C327.856 407.319 327.856 405.707 328.352 404.219C328.848 402.607 335.916 397.399 335.916 397.399Z" fill="#F7A491"/>
<path d="M285.944 449.353C284.58 448.361 282.968 447.493 281.232 447.121C281.232 447.121 276.024 442.409 272.8 427.654L266.228 426.29C263.872 425.794 261.64 426.91 260.4 428.894C260.276 429.142 260.152 429.514 260.028 429.762C259.78 431.374 259.656 432.985 259.532 434.597C259.16 439.681 260.276 450.965 260.276 450.965H261.516V440.673C261.516 437.201 264.368 441.169 265.36 444.889C266.352 448.609 268.088 452.576 275.776 452.328C284.704 451.956 288.3 451.337 285.944 449.353Z" fill="#2E353A"/>
<path d="M271.436 422.322C271.436 422.322 273.172 429.018 275.776 436.457C278.256 443.897 281.232 446.997 281.232 446.997C281.232 446.997 275.528 448.237 272.924 444.517C270.196 440.797 266.228 427.778 260.4 428.77C260.4 428.77 260.896 427.282 261.888 425.918C263.004 424.678 271.436 422.322 271.436 422.322Z" fill="#F7A491"/>
<path opacity="0.02" d="M271.436 422.322C271.436 422.322 273.172 429.018 275.776 436.457C278.256 443.897 281.232 446.997 281.232 446.997C281.232 446.997 275.528 448.237 272.924 444.517C270.196 440.797 266.228 427.778 260.4 428.77C260.4 428.77 260.896 427.282 261.888 425.918C263.004 424.678 271.436 422.322 271.436 422.322Z" fill="black"/>
<path d="M270.444 221.204C270.444 221.204 266.476 244.887 261.888 251.459C261.64 251.707 261.516 251.955 261.268 252.203C257.672 255.923 253.456 263.982 251.348 267.95C250.604 269.438 250.108 270.306 250.108 270.306L209.312 268.57C209.312 268.57 210.552 260.634 211.916 252.575C212.908 246.871 214.024 240.051 215.512 233.728C216.132 231.248 216.752 228.768 217.372 226.536C218.736 221.948 220.1 217.981 221.712 215.377C222.58 213.765 223.572 212.649 224.564 212.153C224.564 212.153 226.3 212.029 229.276 212.029H229.524C235.848 212.029 247.504 212.897 260.276 217.237C263.624 218.105 266.972 219.469 270.444 221.204Z" fill="url(#paint4_linear_84_207)"/>
<path d="M234.112 212.277C234.112 212.277 240.064 226.288 250.728 226.288C261.392 226.288 261.764 218.477 261.764 218.477C261.764 218.477 250.976 211.409 234.112 212.277Z" fill="url(#paint5_linear_84_207)"/>
<path d="M247.628 211.161C240.56 209.301 236.84 211.905 232.872 218.229L242.048 221.948L249.612 243.895L258.044 224.428L264.368 224.676C264.368 224.676 263.5 215.501 247.628 211.161Z" fill="url(#paint6_linear_84_207)"/>
<path opacity="0.6" d="M247.628 211.161C240.56 209.301 236.84 211.905 232.872 218.229L242.048 221.948L249.612 243.895L258.044 224.428L264.368 224.676C264.368 224.676 263.5 215.501 247.628 211.161Z" fill="white"/>
<path opacity="0.2" d="M261.888 251.335C261.64 251.583 261.516 251.831 261.268 252.079C257.672 255.799 253.456 263.858 251.348 267.826C241.8 266.586 223.2 263.734 220.72 259.022C218.488 254.683 216.504 241.663 215.512 233.604C216.132 231.124 216.752 228.644 217.372 226.412L231.26 222.568C231.26 222.568 233.492 237.076 233.864 243.895C234.236 249.475 254.696 250.963 261.888 251.335Z" fill="black"/>
<path d="M254.944 216.121C255.068 218.601 256.432 219.221 256.432 219.221C256.928 223.808 250.48 235.34 250.48 235.34L240.436 214.757C246.14 212.525 247.504 206.077 247.752 202.357C247.876 200.622 247.752 199.382 247.752 199.382L258.54 206.201C257.424 207.937 256.68 209.549 256.184 210.913C255.316 213.145 254.944 214.881 254.944 216.121Z" fill="#F7A491"/>
<path opacity="0.2" d="M257.92 205.333C257.052 207.193 256.432 208.805 256.06 210.293C255.316 212.649 255.192 214.385 255.44 215.625C249.364 216.121 247.008 202.729 247.008 202.729V202.605C246.884 200.869 246.76 199.63 246.76 199.63L257.92 205.333Z" fill="black"/>
<path d="M265.111 176.939C275.527 180.163 277.139 186.734 274.659 197.646C271.559 211.285 265.607 219.965 253.579 213.145C237.087 203.721 247.875 171.607 265.111 176.939Z" fill="#F7A491"/>
<path d="M248.496 190.95C248.496 190.95 255.936 183.882 257.176 177.063C257.176 177.063 280.364 174.955 274.908 196.158C274.908 196.158 282.596 178.179 264.864 172.351C247.132 166.523 239.196 192.686 246.14 203.225C246.14 203.225 243.784 195.414 248.496 190.95Z" fill="#263238"/>
<path d="M249.488 193.678C249.984 191.942 249.116 188.594 245.892 187.974C242.544 187.354 239.072 193.43 246.512 197.522C247.504 198.142 248.496 197.15 249.488 193.678Z" fill="#F7A491"/>
<path d="M264.368 261.626C264.368 261.626 274.784 259.395 281.976 259.023C289.044 258.651 297.104 258.527 295.12 262.37L266.228 262.618L264.368 261.626Z" fill="url(#paint7_linear_84_207)"/>
<path opacity="0.7" d="M264.368 261.626C264.368 261.626 274.784 259.395 281.976 259.023C289.044 258.651 297.104 258.527 295.12 262.37L266.228 262.618L264.368 261.626Z" fill="white"/>
<path d="M296.484 261.626H263.004V262.742H296.484V261.626Z" fill="#263238"/>
<path d="M264.697 242.091L263.344 242.71L270.254 257.82L271.608 257.201L264.697 242.091Z" fill="#263238"/>
<path d="M250.604 255.179L260.152 257.411C260.152 257.411 261.888 255.055 264.12 254.187C266.352 253.319 274.66 252.079 274.66 252.079L276.644 261.626C276.644 261.626 263.252 262.99 262.136 262.742L250.604 261.626V255.179Z" fill="#F7A491"/>
<path d="M224.564 212.029C217.868 213.889 217.372 248.979 219.976 253.567C222.58 258.155 254.076 262.742 254.076 262.742L256.06 255.675C256.06 255.675 229.896 246.623 229.524 245.879C229.152 245.135 231.26 225.172 231.26 221.204C231.26 217.237 224.564 212.029 224.564 212.029Z" fill="url(#paint8_linear_84_207)"/>
<path d="M254.82 254.187L253.456 263.982L256.184 263.61L257.92 254.807L254.82 254.187Z" fill="url(#paint9_linear_84_207)"/>
<path opacity="0.6" d="M254.82 254.187L253.456 263.982L256.184 263.61L257.92 254.807L254.82 254.187Z" fill="white"/>
<path d="M307.024 452.205H299.956L298.84 271.05H308.14L307.024 452.205Z" fill="#263238"/>
<path opacity="0.4" d="M308.14 271.298L308.016 299.94L307.024 452.204H299.956L298.964 299.94L298.84 271.298H308.14Z" fill="white"/>
<path opacity="0.2" d="M308.14 271.298L308.016 300.312H298.964L298.84 271.298H308.14Z" fill="black"/>
<path d="M382.292 452.205H375.224L362.452 271.05H371.876L382.292 452.205Z" fill="#263238"/>
<path opacity="0.5" d="M382.292 452.204H375.224L363.072 279.853L362.452 271.298H371.876L372.372 279.853L382.292 452.204Z" fill="white"/>
<path opacity="0.2" d="M372.372 279.481H363.072L362.452 271.298H371.876L372.372 279.481Z" fill="black"/>
<path d="M231.756 452.205H224.688L235.104 271.05H244.528L231.756 452.205Z" fill="#263238"/>
<path opacity="0.5" d="M244.528 271.298L243.908 279.853L231.756 452.204H224.688L234.608 279.853L235.104 271.298H244.528Z" fill="white"/>
<path opacity="0.2" d="M235.104 271.298H244.528L243.908 279.481H234.608L235.104 271.298Z" fill="black"/>
<path d="M376.712 275.514H230.268C228.78 275.514 227.54 274.274 227.54 272.786V266.586H379.316V272.786C379.316 274.274 378.2 275.514 376.712 275.514Z" fill="#263238"/>
<path opacity="0.6" d="M376.712 275.514H230.268C228.78 275.514 227.54 274.274 227.54 272.786V266.586H379.316V272.786C379.316 274.274 378.2 275.514 376.712 275.514Z" fill="white"/>
<path opacity="0.2" d="M379.44 266.586H227.664V271.05H379.44V266.586Z" fill="black"/>
<path d="M383.78 267.826H223.2C221.836 267.826 220.72 266.71 220.72 265.346C220.72 263.982 221.836 262.866 223.2 262.866H383.78C385.144 262.866 386.26 263.982 386.26 265.346C386.26 266.71 385.144 267.826 383.78 267.826Z" fill="#263238"/>
<path opacity="0.6" d="M383.78 267.826H223.2C221.836 267.826 220.72 266.71 220.72 265.346C220.72 263.982 221.836 262.866 223.2 262.866H383.78C385.144 262.866 386.26 263.982 386.26 265.346C386.26 266.71 385.144 267.826 383.78 267.826Z" fill="white"/>
<path d="M360.964 258.279V261.13C360.964 261.998 359.476 262.618 358.608 262.618H290.78C289.912 262.618 288.548 261.998 288.548 261.13V258.279H360.964Z" fill="#263238"/>
<path opacity="0.6" d="M360.964 258.279V261.13C360.964 261.998 359.476 262.618 358.608 262.618H290.78C289.912 262.618 288.548 261.998 288.548 261.13V258.279H360.964Z" fill="white"/>
<path opacity="0.2" d="M360.964 258.279V261.13C360.964 261.998 359.476 262.618 358.608 262.618H313.844C312.976 262.618 311.488 261.998 311.488 261.13V258.279H360.964Z" fill="black"/>
<path d="M371.876 222.692L363.816 259.395C363.568 260.634 362.328 261.626 361.212 261.626H317.068C315.952 261.626 315.084 260.387 315.456 259.147L323.516 222.816C323.764 221.577 325.004 220.957 326.12 220.957H370.264C371.38 220.957 372.124 221.453 371.876 222.692Z" fill="#263238"/>
<path opacity="0.6" d="M371.876 222.692L363.816 259.395C363.568 260.634 362.328 261.626 361.212 261.626H317.068C315.952 261.626 315.084 260.387 315.456 259.147L323.516 222.816C323.764 221.577 325.004 220.957 326.12 220.957H370.264C371.38 220.957 372.124 221.453 371.876 222.692Z" fill="white"/>
<path opacity="0.4" d="M371.876 222.692L363.816 259.395C363.568 260.634 362.328 261.626 361.212 261.626H318.556C317.316 261.626 316.572 260.387 316.944 259.147L325.004 222.816C325.252 221.577 326.492 220.957 327.608 220.957H370.264C371.38 220.957 372.124 221.453 371.876 222.692Z" fill="white"/>
<path opacity="0.2" d="M345.96 246.251C348.068 246.251 350.176 244.019 350.672 241.292C351.168 238.564 349.928 236.332 347.944 236.332C347.572 236.332 347.2 236.456 346.828 236.58C346.332 238.688 344.968 240.424 343.356 241.044C343.356 241.168 343.356 241.168 343.356 241.292C342.612 244.019 343.852 246.251 345.96 246.251Z" fill="black"/>
<rect x="144.456" y="104.707" width="68.9417" height="68.9417" transform="rotate(45 144.456 104.707)" stroke="#A4A7E5"/>
<rect x="541.456" y="332.076" width="24.5796" height="24.5796" transform="rotate(45 541.456 332.076)" stroke="#A4A7E5"/>
</g>
<defs>
<linearGradient id="paint0_linear_84_207" x1="174.969" y1="339.373" x2="260.407" y2="339.373" gradientUnits="userSpaceOnUse">
<stop stop-color="#703FEC"/>
<stop offset="1" stop-color="#00B9E4"/>
</linearGradient>
<linearGradient id="paint1_linear_84_207" x1="149.728" y1="249.98" x2="205.415" y2="249.98" gradientUnits="userSpaceOnUse">
<stop stop-color="#703FEC"/>
<stop offset="1" stop-color="#00B9E4"/>
</linearGradient>
<linearGradient id="paint2_linear_84_207" x1="264.246" y1="241.982" x2="308.474" y2="241.982" gradientUnits="userSpaceOnUse">
<stop stop-color="#703FEC"/>
<stop offset="1" stop-color="#00B9E4"/>
</linearGradient>
<linearGradient id="paint3_linear_84_207" x1="305.536" y1="259.644" x2="309.256" y2="259.644" gradientUnits="userSpaceOnUse">
<stop stop-color="#703FEC"/>
<stop offset="1" stop-color="#00B9E4"/>
</linearGradient>
<linearGradient id="paint4_linear_84_207" x1="209.315" y1="241.18" x2="270.449" y2="241.18" gradientUnits="userSpaceOnUse">
<stop stop-color="#703FEC"/>
<stop offset="1" stop-color="#00B9E4"/>
</linearGradient>
<linearGradient id="paint5_linear_84_207" x1="234.113" y1="219.249" x2="261.766" y2="219.249" gradientUnits="userSpaceOnUse">
<stop stop-color="#703FEC"/>
<stop offset="1" stop-color="#00B9E4"/>
</linearGradient>
<linearGradient id="paint6_linear_84_207" x1="232.874" y1="227.241" x2="264.371" y2="227.241" gradientUnits="userSpaceOnUse">
<stop stop-color="#703FEC"/>
<stop offset="1" stop-color="#00B9E4"/>
</linearGradient>
<linearGradient id="paint7_linear_84_207" x1="264.369" y1="260.734" x2="295.428" y2="260.734" gradientUnits="userSpaceOnUse">
<stop stop-color="#703FEC"/>
<stop offset="1" stop-color="#00B9E4"/>
</linearGradient>
<linearGradient id="paint8_linear_84_207" x1="218.515" y1="237.397" x2="256.063" y2="237.397" gradientUnits="userSpaceOnUse">
<stop stop-color="#703FEC"/>
<stop offset="1" stop-color="#00B9E4"/>
</linearGradient>
<linearGradient id="paint9_linear_84_207" x1="253.456" y1="259.087" x2="257.92" y2="259.087" gradientUnits="userSpaceOnUse">
<stop stop-color="#703FEC"/>
<stop offset="1" stop-color="#00B9E4"/>
</linearGradient>
<clipPath id="clip0_84_207">
<rect width="620" height="462" fill="white"/>
</clipPath>
</defs>
</svg>
